<svg width="135" height="68" viewBox="0 0 135 68" fill="none" xmlns="http://www.w3.org/2000/svg">
<path d="M67.5 0.5C86.0783 0.5 102.873 4.29448 115.005 10.4053C127.165 16.5306 134.5 24.9007 134.5 34C134.5 43.0993 127.165 51.4694 115.005 57.5947C102.873 63.7055 86.0783 67.5 67.5 67.5C48.9217 67.5 32.1268 63.7055 19.9951 57.5947C7.83467 51.4694 0.5 43.0993 0.5 34C0.5 24.9007 7.83467 16.5306 19.9951 10.4053C32.1268 4.29448 48.9217 0.5 67.5 0.5Z" fill="url(#paint0_linear_40_215)" stroke="black"/>
<rect x="16.4678" y="33.8615" width="53.4619" height="13.5846" fill="#EFEFEF"/>
<g clip-path="url(#clip0_40_215)">
<path fill-rule="evenodd" clip-rule="evenodd" d="M19.1003 25.6868C13.6184 23.0601 14.2474 20.1321 19.7543 20.4381L20.9875 22.6176L23.5288 15.1659C24.5273 12.2332 26.1899 9.57352 29.4501 9.57352L75.264 9.57349C78.5242 9.57349 80.4014 12.1814 81.1903 15.1611L83.0975 22.3869L84.1958 20.4381C89.8575 20.1274 90.3618 23.2295 84.3706 25.908L85.3441 27.3155C89.2833 31.1332 88.9139 37.8835 88.2998 47.3124L74.9343 46.1313L74.988 51.1442C74.988 52.1045 74.1543 52.8906 73.1358 52.8906H65.2324C64.2139 52.8906 63.3801 52.1045 63.3801 51.1442V49.007H26.0251V51.1442C26.0251 52.1045 25.1913 52.8906 24.1728 52.8906H16.2695C15.251 52.8906 14.4172 52.1045 14.4172 51.1442V46.385C14.4172 46.2909 14.4272 46.2015 14.4372 46.112C13.838 38.8768 12.9943 29.415 19.1003 25.6868ZM26.1581 40.2717L22.0829 39.4385C20.4253 39.2643 19.981 39.9233 20.5452 41.2696L21.3041 42.7875C21.5487 43.2347 21.6804 43.3112 21.8228 43.3824C22.261 43.6015 23.2312 43.5142 23.8253 43.5377L27.1417 43.5848C28.6544 43.5801 29.3085 43.8869 28.8342 42.5783C28.4448 41.3496 27.5561 40.5776 26.1581 40.2717ZM41.1728 34.4237H48.3622C48.7866 34.4237 49.1361 34.7532 49.1361 35.1533C49.1361 35.5534 48.7866 35.8829 48.3622 35.8829H41.1728C40.7484 35.8829 40.3989 35.5534 40.3989 35.1533C40.3939 34.7532 40.7434 34.4237 41.1728 34.4237ZM73.5165 40.6104L80.5362 39.7772C82.1938 39.603 82.6381 40.262 82.074 41.6083L81.3151 43.3453C81.0704 43.7925 80.7459 43.2409 80.3665 43.4669C79.9221 43.7258 79.3879 43.8529 78.7938 43.8764L72.533 43.9235C71.0202 43.9188 70.3662 44.2256 70.8405 42.917C71.2299 41.6884 72.1186 40.9164 73.5165 40.6104ZM23.6236 24.2605L80.2816 24.2604L78.3694 16.7663C77.8452 14.4833 76.3374 12.5062 73.8511 12.5062L30.5285 12.5062C28.0471 12.5062 26.774 14.5351 26.0101 16.7664L23.6236 24.2605Z" fill="black"/>
</g>
<rect x="31.9893" y="33.8616" width="53.4619" height="13.5846" fill="#EFEFEF"/>
<path fill-rule="evenodd" clip-rule="evenodd" d="M32.2468 25.6869C26.7648 23.0602 27.3939 20.1322 32.9008 20.4382L34.134 22.6177L36.6753 15.1659C37.6738 12.2333 39.3363 9.57361 42.5965 9.57361H75.0987C78.3589 9.57361 80.2361 12.1815 81.025 15.1612L82.9322 22.387L84.0305 20.4382C89.6922 20.1275 90.1965 23.2296 84.2053 25.9081L85.1789 27.3156C89.1181 31.1333 88.7486 37.8836 88.1345 47.3125V51.1443C88.1345 52.1046 87.3007 52.8907 86.2822 52.8907H78.3789C77.3604 52.8907 76.5266 52.1046 76.5266 51.1443V49.0071H39.1716V51.1443C39.1716 52.1046 38.3378 52.8907 37.3193 52.8907H29.4159C28.3974 52.8907 27.5637 52.1046 27.5637 51.1443V46.3851C27.5637 46.291 27.5737 46.2015 27.5836 46.1121C26.9845 38.8769 26.1408 29.4151 32.2468 25.6869ZM40.2689 40.0064L35.4766 39.1732C33.8191 38.9991 33.3747 39.6581 33.9389 41.0044L34.6189 42.5223C34.8636 42.9695 34.9328 43.109 35.3122 43.335C35.7566 43.5939 36.4656 43.5305 37.0597 43.5541L41.0931 43.6011C42.6058 43.5964 43.4193 43.6217 42.945 42.313C42.5555 41.0844 41.6668 40.3124 40.2689 40.0064ZM75.8373 40.0111L80.5303 39.1732C82.1879 38.9991 82.6322 39.6581 82.0681 41.0044L81.5283 42.5223C81.2836 42.9695 81.0106 42.9537 80.6312 43.1796C80.1868 43.4385 79.2226 43.5305 78.6285 43.5541L74.6944 43.6058C73.1816 43.6011 72.6869 43.6264 73.1612 42.3177C73.5507 41.0891 74.4394 40.3171 75.8373 40.0111ZM36.7701 24.2606H80.1163L78.2041 16.7664C77.6799 14.4834 76.1721 12.5063 73.6858 12.5063H43.675C41.1936 12.5063 39.9205 14.5352 39.1566 16.7664L36.7701 24.2606Z" fill="url(#paint1_linear_40_215)"/>
<mask id="path-6-outside-1_40_215" maskUnits="userSpaceOnUse" x="39" y="28" width="91" height="10" fill="black">
<rect fill="white" x="39" y="28" width="91" height="10"/>
<path d="M39.8281 30.75L40.125 29H47.0781L46.7813 30.75H44.375L43.3438 37H41.2031L42.2344 30.75H39.8281ZM47.4474 37L48.7755 29H52.2286C52.8224 29 53.3237 29.1081 53.7325 29.3242C54.1414 29.5404 54.4357 29.8516 54.6154 30.2578C54.795 30.6641 54.838 31.151 54.7443 31.7187C54.6505 32.2917 54.4435 32.7747 54.1232 33.168C53.8055 33.5586 53.4005 33.8555 52.9083 34.0586C52.4187 34.2591 51.8693 34.3594 51.2599 34.3594H49.1974L49.4786 32.6719H51.1036C51.3588 32.6719 51.5828 32.6406 51.7755 32.5781C51.9682 32.513 52.1245 32.4115 52.2443 32.2734C52.364 32.1328 52.4422 31.9479 52.4786 31.7187C52.5151 31.4896 52.4969 31.3034 52.4239 31.1602C52.351 31.0143 52.2299 30.9076 52.0607 30.8398C51.8914 30.7695 51.6818 30.7344 51.4318 30.7344H50.6661L49.6193 37H47.4474ZM52.7443 33.3281L54.1349 37H51.7755L50.4318 33.3281H52.7443ZM57.8606 37H55.5168L59.4856 29H62.4543L63.7668 37H61.4231L60.6418 31.2031H60.5793L57.8606 37ZM57.9543 33.8438H62.3606L62.0793 35.4687H57.6731L57.9543 33.8438ZM73.6673 29L72.3392 37H70.5267L68.3392 32.7969H68.2923L67.5892 37H65.4173L66.7455 29H68.5892L70.7455 33.1875H70.808L71.4955 29H73.6673ZM79.4653 31.5C79.4888 31.2422 79.4263 31.0404 79.2778 30.8945C79.1294 30.7461 78.8794 30.6719 78.5278 30.6719C78.3039 30.6719 78.1164 30.6979 77.9653 30.75C77.8169 30.8021 77.701 30.8737 77.6177 30.9648C77.5369 31.056 77.4861 31.1615 77.4653 31.2812C77.4419 31.375 77.4432 31.4609 77.4692 31.5391C77.4979 31.6146 77.5513 31.6836 77.6294 31.7461C77.7101 31.8086 77.8156 31.8646 77.9458 31.9141C78.0786 31.9635 78.2361 32.0078 78.4184 32.0469L79.0434 32.1875C79.4705 32.2812 79.8286 32.4049 80.1177 32.5586C80.4093 32.7096 80.6385 32.8893 80.8052 33.0977C80.9718 33.306 81.0812 33.5391 81.1333 33.7969C81.188 34.0547 81.1893 34.3359 81.1372 34.6406C81.0486 35.1667 80.8442 35.612 80.5239 35.9766C80.2036 36.3411 79.7856 36.6185 79.27 36.8086C78.7544 36.9987 78.158 37.0938 77.4809 37.0938C76.7882 37.0938 76.1997 36.9909 75.7153 36.7852C75.2335 36.5768 74.8846 36.2591 74.6684 35.832C74.4549 35.4023 74.4028 34.8542 74.5122 34.1875H76.5747C76.5434 34.4323 76.5695 34.638 76.6528 34.8047C76.7361 34.9714 76.8703 35.0977 77.0552 35.1836C77.2401 35.2695 77.4705 35.3125 77.7466 35.3125C77.9809 35.3125 78.1815 35.2839 78.3481 35.2266C78.5148 35.1693 78.6463 35.0898 78.7427 34.9883C78.839 34.8867 78.8976 34.7708 78.9184 34.6406C78.9393 34.5208 78.9184 34.4141 78.8559 34.3203C78.7934 34.2266 78.6802 34.1419 78.5161 34.0664C78.352 33.9909 78.1268 33.9219 77.8403 33.8594L77.0747 33.6875C76.395 33.5312 75.882 33.2734 75.5356 32.9141C75.1893 32.5547 75.0669 32.0625 75.1684 31.4375C75.2518 30.9271 75.4614 30.4818 75.7973 30.1016C76.1359 29.7187 76.5656 29.4219 77.0864 29.2109C77.6098 28.9974 78.1893 28.8906 78.8247 28.8906C79.4705 28.8906 80.0109 28.9987 80.4458 29.2148C80.8833 29.431 81.1971 29.7344 81.3872 30.125C81.5799 30.5156 81.632 30.974 81.5434 31.5H79.4653ZM82.4527 37L83.7809 29H89.4059L89.109 30.75H85.6559L85.4371 32.125H88.5465L88.2496 33.875H85.1402L84.6246 37H82.4527ZM89.7566 37L91.0847 29H96.8503L96.5534 30.75H92.9597L92.7409 32.125H96.0378L95.7409 33.875H92.4441L92.2253 35.25H95.8034L95.5066 37H89.7566ZM97.4793 37L98.8075 29H102.261C102.854 29 103.356 29.1081 103.764 29.3242C104.173 29.5404 104.468 29.8516 104.647 30.2578C104.827 30.6641 104.87 31.151 104.776 31.7187C104.682 32.2917 104.475 32.7747 104.155 33.168C103.837 33.5586 103.432 33.8555 102.94 34.0586C102.451 34.2591 101.901 34.3594 101.292 34.3594H99.2293L99.5106 32.6719H101.136C101.391 32.6719 101.615 32.6406 101.807 32.5781C102 32.513 102.156 32.4115 102.276 32.2734C102.396 32.1328 102.474 31.9479 102.511 31.7187C102.547 31.4896 102.529 31.3034 102.456 31.1602C102.383 31.0143 102.262 30.9076 102.093 30.8398C101.923 30.7695 101.714 30.7344 101.464 30.7344H100.698L99.6512 37H97.4793ZM102.776 33.3281L104.167 37H101.807L100.464 33.3281H102.776ZM109.314 29L107.986 37H105.814L107.143 29H109.314ZM115.958 29H118.13L117.278 34.125C117.179 34.7344 116.948 35.2617 116.583 35.707C116.221 36.1497 115.76 36.4922 115.2 36.7344C114.64 36.974 114.018 37.0938 113.333 37.0938C112.643 37.0938 112.06 36.974 111.583 36.7344C111.107 36.4922 110.76 36.1497 110.544 35.707C110.33 35.2617 110.273 34.7344 110.372 34.125L111.224 29H113.396L112.575 33.9375C112.536 34.1849 112.556 34.4049 112.634 34.5977C112.712 34.7904 112.838 34.9427 113.013 35.0547C113.187 35.1641 113.398 35.2187 113.646 35.2187C113.896 35.2187 114.126 35.1641 114.337 35.0547C114.551 34.9427 114.728 34.7904 114.868 34.5977C115.009 34.4049 115.099 34.1849 115.138 33.9375L115.958 29ZM120.042 29H122.745L123.855 33.5313H123.948L126.558 29H129.261L127.933 37H125.808L126.573 32.375H126.511L123.98 36.9375H122.698L121.683 32.3437H121.62L120.839 37H118.714L120.042 29Z"/>
</mask>
<path d="M39.8281 30.75L40.125 29H47.0781L46.7813 30.75H44.375L43.3438 37H41.2031L42.2344 30.75H39.8281ZM47.4474 37L48.7755 29H52.2286C52.8224 29 53.3237 29.1081 53.7325 29.3242C54.1414 29.5404 54.4357 29.8516 54.6154 30.2578C54.795 30.6641 54.838 31.151 54.7443 31.7187C54.6505 32.2917 54.4435 32.7747 54.1232 33.168C53.8055 33.5586 53.4005 33.8555 52.9083 34.0586C52.4187 34.2591 51.8693 34.3594 51.2599 34.3594H49.1974L49.4786 32.6719H51.1036C51.3588 32.6719 51.5828 32.6406 51.7755 32.5781C51.9682 32.513 52.1245 32.4115 52.2443 32.2734C52.364 32.1328 52.4422 31.9479 52.4786 31.7187C52.5151 31.4896 52.4969 31.3034 52.4239 31.1602C52.351 31.0143 52.2299 30.9076 52.0607 30.8398C51.8914 30.7695 51.6818 30.7344 51.4318 30.7344H50.6661L49.6193 37H47.4474ZM52.7443 33.3281L54.1349 37H51.7755L50.4318 33.3281H52.7443ZM57.8606 37H55.5168L59.4856 29H62.4543L63.7668 37H61.4231L60.6418 31.2031H60.5793L57.8606 37ZM57.9543 33.8438H62.3606L62.0793 35.4687H57.6731L57.9543 33.8438ZM73.6673 29L72.3392 37H70.5267L68.3392 32.7969H68.2923L67.5892 37H65.4173L66.7455 29H68.5892L70.7455 33.1875H70.808L71.4955 29H73.6673ZM79.4653 31.5C79.4888 31.2422 79.4263 31.0404 79.2778 30.8945C79.1294 30.7461 78.8794 30.6719 78.5278 30.6719C78.3039 30.6719 78.1164 30.6979 77.9653 30.75C77.8169 30.8021 77.701 30.8737 77.6177 30.9648C77.5369 31.056 77.4861 31.1615 77.4653 31.2812C77.4419 31.375 77.4432 31.4609 77.4692 31.5391C77.4979 31.6146 77.5513 31.6836 77.6294 31.7461C77.7101 31.8086 77.8156 31.8646 77.9458 31.9141C78.0786 31.9635 78.2361 32.0078 78.4184 32.0469L79.0434 32.1875C79.4705 32.2812 79.8286 32.4049 80.1177 32.5586C80.4093 32.7096 80.6385 32.8893 80.8052 33.0977C80.9718 33.306 81.0812 33.5391 81.1333 33.7969C81.188 34.0547 81.1893 34.3359 81.1372 34.6406C81.0486 35.1667 80.8442 35.612 80.5239 35.9766C80.2036 36.3411 79.7856 36.6185 79.27 36.8086C78.7544 36.9987 78.158 37.0938 77.4809 37.0938C76.7882 37.0938 76.1997 36.9909 75.7153 36.7852C75.2335 36.5768 74.8846 36.2591 74.6684 35.832C74.4549 35.4023 74.4028 34.8542 74.5122 34.1875H76.5747C76.5434 34.4323 76.5695 34.638 76.6528 34.8047C76.7361 34.9714 76.8703 35.0977 77.0552 35.1836C77.2401 35.2695 77.4705 35.3125 77.7466 35.3125C77.9809 35.3125 78.1815 35.2839 78.3481 35.2266C78.5148 35.1693 78.6463 35.0898 78.7427 34.9883C78.839 34.8867 78.8976 34.7708 78.9184 34.6406C78.9393 34.5208 78.9184 34.4141 78.8559 34.3203C78.7934 34.2266 78.6802 34.1419 78.5161 34.0664C78.352 33.9909 78.1268 33.9219 77.8403 33.8594L77.0747 33.6875C76.395 33.5312 75.882 33.2734 75.5356 32.9141C75.1893 32.5547 75.0669 32.0625 75.1684 31.4375C75.2518 30.9271 75.4614 30.4818 75.7973 30.1016C76.1359 29.7187 76.5656 29.4219 77.0864 29.2109C77.6098 28.9974 78.1893 28.8906 78.8247 28.8906C79.4705 28.8906 80.0109 28.9987 80.4458 29.2148C80.8833 29.431 81.1971 29.7344 81.3872 30.125C81.5799 30.5156 81.632 30.974 81.5434 31.5H79.4653ZM82.4527 37L83.7809 29H89.4059L89.109 30.75H85.6559L85.4371 32.125H88.5465L88.2496 33.875H85.1402L84.6246 37H82.4527ZM89.7566 37L91.0847 29H96.8503L96.5534 30.75H92.9597L92.7409 32.125H96.0378L95.7409 33.875H92.4441L92.2253 35.25H95.8034L95.5066 37H89.7566ZM97.4793 37L98.8075 29H102.261C102.854 29 103.356 29.1081 103.764 29.3242C104.173 29.5404 104.468 29.8516 104.647 30.2578C104.827 30.6641 104.87 31.151 104.776 31.7187C104.682 32.2917 104.475 32.7747 104.155 33.168C103.837 33.5586 103.432 33.8555 102.94 34.0586C102.451 34.2591 101.901 34.3594 101.292 34.3594H99.2293L99.5106 32.6719H101.136C101.391 32.6719 101.615 32.6406 101.807 32.5781C102 32.513 102.156 32.4115 102.276 32.2734C102.396 32.1328 102.474 31.9479 102.511 31.7187C102.547 31.4896 102.529 31.3034 102.456 31.1602C102.383 31.0143 102.262 30.9076 102.093 30.8398C101.923 30.7695 101.714 30.7344 101.464 30.7344H100.698L99.6512 37H97.4793ZM102.776 33.3281L104.167 37H101.807L100.464 33.3281H102.776ZM109.314 29L107.986 37H105.814L107.143 29H109.314ZM115.958 29H118.13L117.278 34.125C117.179 34.7344 116.948 35.2617 116.583 35.707C116.221 36.1497 115.76 36.4922 115.2 36.7344C114.64 36.974 114.018 37.0938 113.333 37.0938C112.643 37.0938 112.06 36.974 111.583 36.7344C111.107 36.4922 110.76 36.1497 110.544 35.707C110.33 35.2617 110.273 34.7344 110.372 34.125L111.224 29H113.396L112.575 33.9375C112.536 34.1849 112.556 34.4049 112.634 34.5977C112.712 34.7904 112.838 34.9427 113.013 35.0547C113.187 35.1641 113.398 35.2187 113.646 35.2187C113.896 35.2187 114.126 35.1641 114.337 35.0547C114.551 34.9427 114.728 34.7904 114.868 34.5977C115.009 34.4049 115.099 34.1849 115.138 33.9375L115.958 29ZM120.042 29H122.745L123.855 33.5313H123.948L126.558 29H129.261L127.933 37H125.808L126.573 32.375H126.511L123.98 36.9375H122.698L121.683 32.3437H121.62L120.839 37H118.714L120.042 29Z" fill="white"/>
<path d="M39.8281 30.75L39.5324 30.6998L39.4729 31.05H39.8281V30.75ZM40.125 29V28.7H39.8716L39.8292 28.9498L40.125 29ZM47.0781 29L47.3739 29.0502L47.4333 28.7H47.0781V29ZM46.7812 30.75V31.05H47.0346L47.077 30.8002L46.7812 30.75ZM44.375 30.75V30.45H44.1204L44.079 30.7012L44.375 30.75ZM43.3438 37V37.3H43.5983L43.6397 37.0488L43.3438 37ZM41.2031 37L40.9071 36.9512L40.8496 37.3H41.2031V37ZM42.2344 30.75L42.5304 30.7988L42.5879 30.45H42.2344V30.75ZM39.8281 30.75L40.1239 30.8002L40.4208 29.0502L40.125 29L39.8292 28.9498L39.5324 30.6998L39.8281 30.75ZM40.125 29V29.3H47.0781V29V28.7H40.125V29ZM47.0781 29L46.7824 28.9498L46.4855 30.6998L46.7812 30.75L47.077 30.8002L47.3739 29.0502L47.0781 29ZM46.7812 30.75V30.45H44.375V30.75V31.05H46.7812V30.75ZM44.375 30.75L44.079 30.7012L43.0478 36.9512L43.3438 37L43.6397 37.0488L44.671 30.7988L44.375 30.75ZM43.3438 37V36.7H41.2031V37V37.3H43.3438V37ZM41.2031 37L41.4991 37.0488L42.5304 30.7988L42.2344 30.75L41.9384 30.7012L40.9071 36.9512L41.2031 37ZM42.2344 30.75V30.45H39.8281V30.75V31.05H42.2344V30.75ZM47.4474 37L47.1514 36.9509L47.0935 37.3H47.4474V37ZM48.7755 29V28.7H48.5212L48.4796 28.9509L48.7755 29ZM54.6154 30.2578L54.8897 30.1365L54.6154 30.2578ZM54.7443 31.7188L54.4483 31.6699L54.4482 31.6703L54.7443 31.7188ZM54.1232 33.168L53.8906 32.9785L53.8904 32.9787L54.1232 33.168ZM52.9083 34.0586L53.022 34.3362L53.0228 34.3359L52.9083 34.0586ZM49.1974 34.3594L48.9015 34.3101L48.8432 34.6594H49.1974V34.3594ZM49.4786 32.6719V32.3719H49.2245L49.1827 32.6226L49.4786 32.6719ZM51.7755 32.5781L51.8681 32.8635L51.8715 32.8623L51.7755 32.5781ZM52.2443 32.2734L52.4708 32.4701L52.4726 32.468L52.2443 32.2734ZM52.4786 31.7188L52.1824 31.6716L52.4786 31.7188ZM52.4239 31.1602L52.1556 31.2943L52.1566 31.2963L52.4239 31.1602ZM52.0607 30.8398L51.9456 31.1169L51.9492 31.1184L52.0607 30.8398ZM50.6661 30.7344V30.4344H50.4121L50.3702 30.6849L50.6661 30.7344ZM49.6193 37V37.3H49.8733L49.9152 37.0494L49.6193 37ZM52.7443 33.3281L53.0248 33.2219L52.9514 33.0281H52.7443V33.3281ZM54.1349 37V37.3H54.5693L54.4154 36.8937L54.1349 37ZM51.7755 37L51.4938 37.1031L51.5658 37.3H51.7755V37ZM50.4318 33.3281V33.0281H50.0025L50.15 33.4312L50.4318 33.3281ZM47.4474 37L47.7433 37.0491L49.0715 29.0491L48.7755 29L48.4796 28.9509L47.1514 36.9509L47.4474 37ZM48.7755 29V29.3H52.2286V29V28.7H48.7755V29ZM52.2286 29V29.3C52.787 29.3 53.2372 29.4017 53.5923 29.5894L53.7325 29.3242L53.8728 29.059C53.4102 28.8144 52.8578 28.7 52.2286 28.7V29ZM53.7325 29.3242L53.5923 29.5894C53.9442 29.7755 54.1898 30.0373 54.341 30.3792L54.6154 30.2578L54.8897 30.1365C54.6816 29.6659 54.3386 29.3053 53.8728 29.059L53.7325 29.3242ZM54.6154 30.2578L54.341 30.3792C54.491 30.7183 54.5353 31.143 54.4483 31.6699L54.7443 31.7188L55.0402 31.7676C55.1407 31.1591 55.0991 30.6098 54.8897 30.1365L54.6154 30.2578ZM54.7443 31.7188L54.4482 31.6703C54.3617 32.1991 54.1732 32.6315 53.8906 32.9785L54.1232 33.168L54.3558 33.3574C54.7137 32.918 54.9393 32.3843 55.0403 31.7672L54.7443 31.7188ZM54.1232 33.168L53.8904 32.9787C53.606 33.3283 53.2427 33.5961 52.7939 33.7813L52.9083 34.0586L53.0228 34.3359C53.5584 34.1149 54.0049 33.7888 54.3559 33.3573L54.1232 33.168ZM52.9083 34.0586L52.7946 33.781C52.3462 33.9646 51.8361 34.0594 51.2599 34.0594V34.3594V34.6594C51.9024 34.6594 52.4913 34.5536 53.022 34.3362L52.9083 34.0586ZM51.2599 34.3594V34.0594H49.1974V34.3594V34.6594H51.2599V34.3594ZM49.1974 34.3594L49.4933 34.4087L49.7746 32.7212L49.4786 32.6719L49.1827 32.6226L48.9015 34.3101L49.1974 34.3594ZM49.4786 32.6719V32.9719H51.1036V32.6719V32.3719H49.4786V32.6719ZM51.1036 32.6719V32.9719C51.3825 32.9719 51.6389 32.9378 51.8681 32.8635L51.7755 32.5781L51.683 32.2928C51.5267 32.3434 51.3352 32.3719 51.1036 32.3719V32.6719ZM51.7755 32.5781L51.8715 32.8623C52.1089 32.7821 52.3122 32.6528 52.4708 32.4701L52.2443 32.2734L52.0177 32.0768C51.9367 32.1701 51.8275 32.2439 51.6795 32.2939L51.7755 32.5781ZM52.2443 32.2734L52.4726 32.468C52.6363 32.2759 52.732 32.0357 52.7749 31.7659L52.4786 31.7188L52.1824 31.6716C52.1524 31.8602 52.0918 31.9897 52.0159 32.0789L52.2443 32.2734ZM52.4786 31.7188L52.7749 31.7659C52.8171 31.5008 52.8032 31.2439 52.6913 31.0241L52.4239 31.1602L52.1566 31.2963C52.1905 31.3629 52.2131 31.4783 52.1824 31.6716L52.4786 31.7188ZM52.4239 31.1602L52.6923 31.026C52.5826 30.8066 52.4009 30.6528 52.1721 30.5613L52.0607 30.8398L51.9492 31.1184C52.059 31.1623 52.1195 31.2221 52.1556 31.2943L52.4239 31.1602ZM52.0607 30.8398L52.1757 30.5628C51.9593 30.4729 51.7078 30.4344 51.4318 30.4344V30.7344V31.0344C51.6557 31.0344 51.8235 31.0662 51.9456 31.1169L52.0607 30.8398ZM51.4318 30.7344V30.4344H50.6661V30.7344V31.0344H51.4318V30.7344ZM50.6661 30.7344L50.3702 30.6849L49.3234 36.9506L49.6193 37L49.9152 37.0494L50.962 30.7838L50.6661 30.7344ZM49.6193 37V36.7H47.4474V37V37.3H49.6193V37ZM52.7443 33.3281L52.4637 33.4344L53.8543 37.1063L54.1349 37L54.4154 36.8937L53.0248 33.2219L52.7443 33.3281ZM54.1349 37V36.7H51.7755V37V37.3H54.1349V37ZM51.7755 37L52.0572 36.8969L50.7135 33.225L50.4318 33.3281L50.15 33.4312L51.4938 37.1031L51.7755 37ZM50.4318 33.3281V33.6281H52.7443V33.3281V33.0281H50.4318V33.3281ZM57.8606 37V37.3H58.0512L58.1322 37.1274L57.8606 37ZM55.5168 37L55.2481 36.8667L55.0331 37.3H55.5168V37ZM59.4856 29V28.7H59.2995L59.2168 28.8667L59.4856 29ZM62.4543 29L62.7504 28.9514L62.7091 28.7H62.4543V29ZM63.7668 37V37.3H64.1201L64.0629 36.9514L63.7668 37ZM61.4231 37L61.1258 37.0401L61.1608 37.3H61.4231V37ZM60.6418 31.2031L60.9391 31.1631L60.9041 30.9031H60.6418V31.2031ZM60.5793 31.2031V30.9031H60.3887L60.3077 31.0757L60.5793 31.2031ZM57.9543 33.8438V33.5437H57.7018L57.6587 33.7926L57.9543 33.8438ZM62.3606 33.8438L62.6562 33.8949L62.717 33.5437H62.3606V33.8438ZM62.0793 35.4688V35.7688H62.3319L62.3749 35.5199L62.0793 35.4688ZM57.6731 35.4688L57.3775 35.4176L57.3167 35.7688H57.6731V35.4688ZM57.8606 37V36.7H55.5168V37V37.3H57.8606V37ZM55.5168 37L55.7856 37.1333L59.7543 29.1333L59.4856 29L59.2168 28.8667L55.2481 36.8667L55.5168 37ZM59.4856 29V29.3H62.4543V29V28.7H59.4856V29ZM62.4543 29L62.1583 29.0486L63.4708 37.0486L63.7668 37L64.0629 36.9514L62.7504 28.9514L62.4543 29ZM63.7668 37V36.7H61.4231V37V37.3H63.7668V37ZM61.4231 37L61.7204 36.9599L60.9391 31.1631L60.6418 31.2031L60.3445 31.2432L61.1258 37.0401L61.4231 37ZM60.6418 31.2031V30.9031H60.5793V31.2031V31.5031H60.6418V31.2031ZM60.5793 31.2031L60.3077 31.0757L57.589 36.8726L57.8606 37L58.1322 37.1274L60.8509 31.3305L60.5793 31.2031ZM57.9543 33.8438V34.1438H62.3606V33.8438V33.5437H57.9543V33.8438ZM62.3606 33.8438L62.065 33.7926L61.7837 35.4176L62.0793 35.4688L62.3749 35.5199L62.6562 33.8949L62.3606 33.8438ZM62.0793 35.4688V35.1687H57.6731V35.4688V35.7688H62.0793V35.4688ZM57.6731 35.4688L57.9687 35.5199L58.2499 33.8949L57.9543 33.8438L57.6587 33.7926L57.3775 35.4176L57.6731 35.4688ZM73.6673 29L73.9633 29.0491L74.0213 28.7H73.6673V29ZM72.3392 37V37.3H72.5935L72.6352 37.0491L72.3392 37ZM70.5267 37L70.2606 37.1385L70.3447 37.3H70.5267V37ZM68.3392 32.7969L68.6053 32.6584L68.5213 32.4969H68.3392V32.7969ZM68.2923 32.7969V32.4969H68.0384L67.9965 32.7474L68.2923 32.7969ZM67.5892 37V37.3H67.8432L67.8851 37.0495L67.5892 37ZM65.4173 37L65.1214 36.9509L65.0634 37.3H65.4173V37ZM66.7455 29V28.7H66.4912L66.4495 28.9509L66.7455 29ZM68.5892 29L68.8559 28.8627L68.7722 28.7H68.5892V29ZM70.7455 33.1875L70.4788 33.3248L70.5625 33.4875H70.7455V33.1875ZM70.808 33.1875V33.4875H71.0627L71.104 33.2361L70.808 33.1875ZM71.4955 29V28.7H71.2407L71.1994 28.9514L71.4955 29ZM73.6673 29L73.3714 28.9509L72.0433 36.9509L72.3392 37L72.6352 37.0491L73.9633 29.0491L73.6673 29ZM72.3392 37V36.7H70.5267V37V37.3H72.3392V37ZM70.5267 37L70.7928 36.8615L68.6053 32.6584L68.3392 32.7969L68.0731 32.9354L70.2606 37.1385L70.5267 37ZM68.3392 32.7969V32.4969H68.2923V32.7969V33.0969H68.3392V32.7969ZM68.2923 32.7969L67.9965 32.7474L67.2933 36.9505L67.5892 37L67.8851 37.0495L68.5882 32.8464L68.2923 32.7969ZM67.5892 37V36.7H65.4173V37V37.3H67.5892V37ZM65.4173 37L65.7133 37.0491L67.0414 29.0491L66.7455 29L66.4495 28.9509L65.1214 36.9509L65.4173 37ZM66.7455 29V29.3H68.5892V29V28.7H66.7455V29ZM68.5892 29L68.3225 29.1373L70.4788 33.3248L70.7455 33.1875L71.0122 33.0502L68.8559 28.8627L68.5892 29ZM70.7455 33.1875V33.4875H70.808V33.1875V32.8875H70.7455V33.1875ZM70.808 33.1875L71.104 33.2361L71.7915 29.0486L71.4955 29L71.1994 28.9514L70.5119 33.1389L70.808 33.1875ZM71.4955 29V29.3H73.6673V29V28.7H71.4955V29ZM79.4653 31.5L79.1665 31.4728L79.1368 31.8H79.4653V31.5ZM79.2778 30.8945L79.0657 31.1067L79.0676 31.1085L79.2778 30.8945ZM77.9653 30.75L77.8675 30.4664L77.866 30.4669L77.9653 30.75ZM77.6177 30.9648L77.3962 30.7624L77.3931 30.7659L77.6177 30.9648ZM77.4653 31.2812L77.7564 31.354L77.759 31.3434L77.7609 31.3327L77.4653 31.2812ZM77.4692 31.5391L77.1844 31.634L77.1887 31.6455L77.4692 31.5391ZM77.6294 31.7461L77.4419 31.9804L77.4457 31.9833L77.6294 31.7461ZM77.9458 31.9141L77.8392 32.1945L77.841 32.1952L77.9458 31.9141ZM78.4184 32.0469L78.4843 31.7542L78.4813 31.7535L78.4184 32.0469ZM79.0434 32.1875L78.9776 32.4802L78.9791 32.4805L79.0434 32.1875ZM80.1177 32.5586L79.9768 32.8235L79.9797 32.825L80.1177 32.5586ZM80.8052 33.0977L80.5709 33.2851L80.8052 33.0977ZM81.1333 33.7969L80.8392 33.8563L80.8398 33.8591L81.1333 33.7969ZM81.1372 34.6406L80.8415 34.5901L80.8414 34.5908L81.1372 34.6406ZM80.5239 35.9766L80.2985 35.7786L80.5239 35.9766ZM79.27 36.8086L79.1662 36.5271L79.27 36.8086ZM75.7153 36.7852L75.5962 37.0605L75.598 37.0613L75.7153 36.7852ZM74.6684 35.832L74.3998 35.9655L74.4008 35.9675L74.6684 35.832ZM74.5122 34.1875V33.8875H74.2574L74.2161 34.1389L74.5122 34.1875ZM76.5747 34.1875L76.8723 34.2255L76.9154 33.8875H76.5747V34.1875ZM76.6528 34.8047L76.9211 34.6705L76.6528 34.8047ZM77.0552 35.1836L76.9287 35.4556V35.4556L77.0552 35.1836ZM78.7427 34.9883L78.525 34.7818L78.7427 34.9883ZM78.9184 34.6406L78.6228 34.5892L78.6222 34.5932L78.9184 34.6406ZM78.8559 34.3203L78.6063 34.4867L78.8559 34.3203ZM78.5161 34.0664L78.3907 34.3389L78.5161 34.0664ZM77.8403 33.8594L77.7746 34.1521L77.7764 34.1525L77.8403 33.8594ZM77.0747 33.6875L77.0075 33.9799L77.009 33.9802L77.0747 33.6875ZM75.5356 32.9141L75.7516 32.7059L75.5356 32.9141ZM75.1684 31.4375L74.8724 31.3892L74.8723 31.3894L75.1684 31.4375ZM75.7973 30.1016L75.5726 29.9028L75.5725 29.9029L75.7973 30.1016ZM77.0864 29.2109L77.199 29.489L77.1997 29.4887L77.0864 29.2109ZM80.4458 29.2148L80.3123 29.4835L80.3129 29.4838L80.4458 29.2148ZM81.3872 30.125L81.1174 30.2563L81.1181 30.2577L81.3872 30.125ZM81.5434 31.5V31.8H81.7972L81.8393 31.5498L81.5434 31.5ZM79.4653 31.5L79.7641 31.5272C79.7935 31.2037 79.716 30.9045 79.4881 30.6805L79.2778 30.8945L79.0676 31.1085C79.1365 31.1762 79.184 31.2807 79.1665 31.4728L79.4653 31.5ZM79.2778 30.8945L79.4899 30.6824C79.2574 30.4499 78.9083 30.3719 78.5278 30.3719V30.6719V30.9719C78.8505 30.9719 79.0013 31.0423 79.0657 31.1067L79.2778 30.8945ZM78.5278 30.6719V30.3719C78.2829 30.3719 78.0599 30.4001 77.8675 30.4664L77.9653 30.75L78.0631 31.0336C78.1728 30.9958 78.3248 30.9719 78.5278 30.9719V30.6719ZM77.9653 30.75L77.866 30.4669C77.6833 30.531 77.5209 30.6261 77.3962 30.7624L77.6177 30.9648L77.8391 31.1673C77.8811 31.1213 77.9504 31.0731 78.0646 31.0331L77.9653 30.75ZM77.6177 30.9648L77.3931 30.7659C77.2755 30.8987 77.2001 31.0552 77.1698 31.2298L77.4653 31.2812L77.7609 31.3327C77.7722 31.2677 77.7983 31.2133 77.8422 31.1638L77.6177 30.9648ZM77.4653 31.2812L77.1743 31.2085C77.1394 31.3478 77.1376 31.4929 77.1846 31.6339L77.4692 31.5391L77.7538 31.4442C77.7488 31.429 77.7443 31.4022 77.7564 31.354L77.4653 31.2812ZM77.4692 31.5391L77.1887 31.6455C77.2405 31.7818 77.3319 31.8923 77.442 31.9804L77.6294 31.7461L77.8168 31.5118C77.7706 31.4749 77.7553 31.4473 77.7497 31.4327L77.4692 31.5391ZM77.6294 31.7461L77.4457 31.9833C77.5566 32.0692 77.6907 32.138 77.8392 32.1945L77.9458 31.9141L78.0523 31.6336C77.9405 31.5911 77.8636 31.548 77.813 31.5089L77.6294 31.7461ZM77.9458 31.9141L77.841 32.1952C77.991 32.251 78.1632 32.299 78.3556 32.3402L78.4184 32.0469L78.4813 31.7535C78.3091 31.7166 78.1662 31.676 78.0505 31.6329L77.9458 31.9141ZM78.4184 32.0469L78.3526 32.3396L78.9776 32.4802L79.0434 32.1875L79.1093 31.8948L78.4843 31.7542L78.4184 32.0469ZM79.0434 32.1875L78.9791 32.4805C79.3879 32.5703 79.7184 32.6861 79.9769 32.8235L80.1177 32.5586L80.2585 32.2937C79.9388 32.1238 79.5532 31.9922 79.1078 31.8945L79.0434 32.1875ZM80.1177 32.5586L79.9797 32.825C80.2425 32.9611 80.4358 33.1162 80.5709 33.2851L80.8052 33.0977L81.0394 32.9102C80.8412 32.6625 80.5762 32.4582 80.2556 32.2922L80.1177 32.5586ZM80.8052 33.0977L80.5709 33.2851C80.7082 33.4567 80.7967 33.646 80.8392 33.8563L81.1333 33.7969L81.4273 33.7375C81.3657 33.4321 81.2355 33.1553 81.0394 32.9102L80.8052 33.0977ZM81.1333 33.7969L80.8398 33.8591C80.8854 34.074 80.8883 34.3164 80.8415 34.5901L81.1372 34.6406L81.4329 34.6912C81.4903 34.3554 81.4906 34.0354 81.4268 33.7346L81.1333 33.7969ZM81.1372 34.6406L80.8414 34.5908C80.7611 35.0675 80.5784 35.46 80.2985 35.7786L80.5239 35.9766L80.7493 36.1746C81.11 35.764 81.3362 35.2658 81.433 34.6904L81.1372 34.6406ZM80.5239 35.9766L80.2985 35.7786C80.0153 36.1009 79.6413 36.352 79.1662 36.5271L79.27 36.8086L79.3738 37.0901C79.93 36.885 80.3919 36.5814 80.7493 36.1746L80.5239 35.9766ZM79.27 36.8086L79.1662 36.5271C78.6905 36.7025 78.1305 36.7937 77.4809 36.7937V37.0938V37.3938C78.1855 37.3938 78.8182 37.2949 79.3738 37.0901L79.27 36.8086ZM77.4809 37.0938V36.7937C76.8164 36.7937 76.2701 36.6949 75.8326 36.509L75.7153 36.7852L75.598 37.0613C76.1292 37.2869 76.76 37.3938 77.4809 37.3938V37.0938ZM75.7153 36.7852L75.8344 36.5098C75.4103 36.3264 75.1175 36.0549 74.9361 35.6966L74.6684 35.832L74.4008 35.9675C74.6517 36.4633 75.0568 36.8272 75.5962 37.0605L75.7153 36.7852ZM74.6684 35.832L74.9371 35.6985C74.7609 35.3439 74.705 34.8652 74.8082 34.2361L74.5122 34.1875L74.2161 34.1389C74.1006 34.8431 74.1489 35.4607 74.3998 35.9655L74.6684 35.832ZM74.5122 34.1875V34.4875H76.5747V34.1875V33.8875H74.5122V34.1875ZM76.5747 34.1875L76.2771 34.1495C76.2407 34.4345 76.2672 34.7042 76.3845 34.9389L76.6528 34.8047L76.9211 34.6705C76.8718 34.5718 76.8462 34.4301 76.8723 34.2255L76.5747 34.1875ZM76.6528 34.8047L76.3845 34.9389C76.5011 35.172 76.6885 35.344 76.9287 35.4556L77.0552 35.1836L77.1816 34.9115C77.0521 34.8513 76.9712 34.7707 76.9211 34.6705L76.6528 34.8047ZM77.0552 35.1836L76.9287 35.4556C77.1646 35.5653 77.4415 35.6125 77.7466 35.6125V35.3125V35.0125C77.4996 35.0125 77.3155 34.9738 77.1816 34.9115L77.0552 35.1836ZM77.7466 35.3125V35.6125C78.0039 35.6125 78.2392 35.5812 78.4456 35.5103L78.3481 35.2266L78.2506 34.9429C78.1237 34.9865 77.958 35.0125 77.7466 35.0125V35.3125ZM78.3481 35.2266L78.4456 35.5103C78.6464 35.4413 78.8232 35.3393 78.9603 35.1948L78.7427 34.9883L78.525 34.7818C78.4694 34.8404 78.3832 34.8973 78.2506 34.9429L78.3481 35.2266ZM78.7427 34.9883L78.9603 35.1948C79.0956 35.0522 79.1837 34.8817 79.2147 34.688L78.9184 34.6406L78.6222 34.5932C78.6115 34.6599 78.5824 34.7213 78.525 34.7818L78.7427 34.9883ZM78.9184 34.6406L79.214 34.692C79.2469 34.503 79.2143 34.317 79.1056 34.1539L78.8559 34.3203L78.6063 34.4867C78.6226 34.5111 78.6317 34.5387 78.6229 34.5892L78.9184 34.6406ZM78.8559 34.3203L79.1056 34.1539C78.9989 33.994 78.8285 33.8799 78.6415 33.7939L78.5161 34.0664L78.3907 34.3389C78.5319 34.4039 78.5879 34.4591 78.6063 34.4867L78.8559 34.3203ZM78.5161 34.0664L78.6415 33.7939C78.4495 33.7055 78.2005 33.6309 77.9043 33.5663L77.8403 33.8594L77.7764 34.1525C78.053 34.2128 78.2546 34.2763 78.3907 34.3389L78.5161 34.0664ZM77.8403 33.8594L77.906 33.5667L77.1404 33.3948L77.0747 33.6875L77.009 33.9802L77.7746 34.1521L77.8403 33.8594ZM77.0747 33.6875L77.1419 33.3951C76.4973 33.2469 76.0445 33.0098 75.7516 32.7059L75.5356 32.9141L75.3196 33.1222C75.7194 33.5371 76.2927 33.8156 77.0075 33.9799L77.0747 33.6875ZM75.5356 32.9141L75.7516 32.7059C75.4881 32.4325 75.3737 32.045 75.4646 31.4856L75.1684 31.4375L74.8723 31.3894C74.7601 32.08 74.8904 32.6769 75.3196 33.1222L75.5356 32.9141ZM75.1684 31.4375L75.4645 31.4858C75.5389 31.0301 75.7244 30.6372 76.0222 30.3002L75.7973 30.1016L75.5725 29.9029C75.1984 30.3264 74.9646 30.8241 74.8724 31.3892L75.1684 31.4375ZM75.7973 30.1016L76.0221 30.3003C76.3269 29.9556 76.7168 29.6843 77.199 29.489L77.0864 29.2109L76.9738 28.9329C76.4143 29.1595 75.9449 29.4819 75.5726 29.9028L75.7973 30.1016ZM77.0864 29.2109L77.1997 29.4887C77.683 29.2916 78.2233 29.1906 78.8247 29.1906V28.8906V28.5906C78.1552 28.5906 77.5367 28.7032 76.9731 28.9332L77.0864 29.2109ZM78.8247 28.8906V29.1906C79.4388 29.1906 79.9302 29.2936 80.3123 29.4835L80.4458 29.2148L80.5793 28.9462C80.0916 28.7038 79.5022 28.5906 78.8247 28.5906V28.8906ZM80.4458 29.2148L80.3129 29.4838C80.6985 29.6743 80.96 29.9328 81.1174 30.2563L81.3872 30.125L81.6569 29.9937C81.4342 29.536 81.068 29.1877 80.5787 28.9459L80.4458 29.2148ZM81.3872 30.125L81.1181 30.2577C81.2772 30.5802 81.3281 30.9721 81.2476 31.4502L81.5434 31.5L81.8393 31.5498C81.9359 30.9758 81.8826 30.4511 81.6562 29.9923L81.3872 30.125ZM81.5434 31.5V31.2H79.4653V31.5V31.8H81.5434V31.5ZM82.4527 37L82.1568 36.9509L82.0988 37.3H82.4527V37ZM83.7809 29V28.7H83.5266L83.4849 28.9509L83.7809 29ZM89.4059 29L89.7016 29.0502L89.761 28.7H89.4059V29ZM89.109 30.75V31.05H89.3624L89.4048 30.8002L89.109 30.75ZM85.6559 30.75V30.45H85.3998L85.3596 30.7029L85.6559 30.75ZM85.4371 32.125L85.1408 32.0779L85.0856 32.425H85.4371V32.125ZM88.5465 32.125L88.8423 32.1752L88.9017 31.825H88.5465V32.125ZM88.2496 33.875V34.175H88.503L88.5454 33.9252L88.2496 33.875ZM85.1402 33.875V33.575H84.8857L84.8442 33.8262L85.1402 33.875ZM84.6246 37V37.3H84.8792L84.9206 37.0488L84.6246 37ZM82.4527 37L82.7487 37.0491L84.0768 29.0491L83.7809 29L83.4849 28.9509L82.1568 36.9509L82.4527 37ZM83.7809 29V29.3H89.4059V29V28.7H83.7809V29ZM89.4059 29L89.1101 28.9498L88.8132 30.6998L89.109 30.75L89.4048 30.8002L89.7016 29.0502L89.4059 29ZM89.109 30.75V30.45H85.6559V30.75V31.05H89.109V30.75ZM85.6559 30.75L85.3596 30.7029L85.1408 32.0779L85.4371 32.125L85.7334 32.1721L85.9521 30.7971L85.6559 30.75ZM85.4371 32.125V32.425H88.5465V32.125V31.825H85.4371V32.125ZM88.5465 32.125L88.2507 32.0748L87.9538 33.8248L88.2496 33.875L88.5454 33.9252L88.8423 32.1752L88.5465 32.125ZM88.2496 33.875V33.575H85.1402V33.875V34.175H88.2496V33.875ZM85.1402 33.875L84.8442 33.8262L84.3286 36.9512L84.6246 37L84.9206 37.0488L85.4362 33.9238L85.1402 33.875ZM84.6246 37V36.7H82.4527V37V37.3H84.6246V37ZM89.7566 37L89.4606 36.9509L89.4026 37.3H89.7566V37ZM91.0847 29V28.7H90.8304L90.7887 28.9509L91.0847 29ZM96.8503 29L97.1461 29.0502L97.2055 28.7H96.8503V29ZM96.5534 30.75V31.05H96.8068L96.8492 30.8002L96.5534 30.75ZM92.9597 30.75V30.45H92.7036L92.6634 30.7029L92.9597 30.75ZM92.7409 32.125L92.4447 32.0779L92.3894 32.425H92.7409V32.125ZM96.0378 32.125L96.3336 32.1752L96.393 31.825H96.0378V32.125ZM95.7409 33.875V34.175H95.9943L96.0367 33.9252L95.7409 33.875ZM92.4441 33.875V33.575H92.188L92.1478 33.8279L92.4441 33.875ZM92.2253 35.25L91.929 35.2029L91.8738 35.55H92.2253V35.25ZM95.8034 35.25L96.0992 35.3002L96.1586 34.95H95.8034V35.25ZM95.5066 37V37.3H95.76L95.8023 37.0502L95.5066 37ZM89.7566 37L90.0525 37.0491L91.3806 29.0491L91.0847 29L90.7887 28.9509L89.4606 36.9509L89.7566 37ZM91.0847 29V29.3H96.8503V29V28.7H91.0847V29ZM96.8503 29L96.5545 28.9498L96.2577 30.6998L96.5534 30.75L96.8492 30.8002L97.1461 29.0502L96.8503 29ZM96.5534 30.75V30.45H92.9597V30.75V31.05H96.5534V30.75ZM92.9597 30.75L92.6634 30.7029L92.4447 32.0779L92.7409 32.125L93.0372 32.1721L93.256 30.7971L92.9597 30.75ZM92.7409 32.125V32.425H96.0378V32.125V31.825H92.7409V32.125ZM96.0378 32.125L95.742 32.0748L95.4452 33.8248L95.7409 33.875L96.0367 33.9252L96.3336 32.1752L96.0378 32.125ZM95.7409 33.875V33.575H92.4441V33.875V34.175H95.7409V33.875ZM92.4441 33.875L92.1478 33.8279L91.929 35.2029L92.2253 35.25L92.5216 35.2971L92.7403 33.9221L92.4441 33.875ZM92.2253 35.25V35.55H95.8034V35.25V34.95H92.2253V35.25ZM95.8034 35.25L95.5077 35.1998L95.2108 36.9498L95.5066 37L95.8023 37.0502L96.0992 35.3002L95.8034 35.25ZM95.5066 37V36.7H89.7566V37V37.3H95.5066V37ZM97.4793 37L97.1834 36.9509L97.1254 37.3H97.4793V37ZM98.8075 29V28.7H98.5532L98.5115 28.9509L98.8075 29ZM104.647 30.2578L104.922 30.1365L104.647 30.2578ZM104.776 31.7188L104.48 31.6699L104.48 31.6703L104.776 31.7188ZM104.155 33.168L103.923 32.9785L103.922 32.9787L104.155 33.168ZM102.94 34.0586L103.054 34.3362L103.055 34.3359L102.94 34.0586ZM99.2293 34.3594L98.9334 34.3101L98.8752 34.6594H99.2293V34.3594ZM99.5106 32.6719V32.3719H99.2564L99.2147 32.6226L99.5106 32.6719ZM101.807 32.5781L101.9 32.8635L101.903 32.8623L101.807 32.5781ZM102.276 32.2734L102.503 32.4701L102.505 32.468L102.276 32.2734ZM102.511 31.7188L102.214 31.6716L102.511 31.7188ZM102.456 31.1602L102.188 31.2943L102.189 31.2963L102.456 31.1602ZM102.093 30.8398L101.978 31.1169L101.981 31.1184L102.093 30.8398ZM100.698 30.7344V30.4344H100.444L100.402 30.6849L100.698 30.7344ZM99.6512 37V37.3H99.9052L99.9471 37.0494L99.6512 37ZM102.776 33.3281L103.057 33.2219L102.983 33.0281H102.776V33.3281ZM104.167 37V37.3H104.601L104.447 36.8937L104.167 37ZM101.807 37L101.526 37.1031L101.598 37.3H101.807V37ZM100.464 33.3281V33.0281H100.034L100.182 33.4312L100.464 33.3281ZM97.4793 37L97.7753 37.0491L99.1034 29.0491L98.8075 29L98.5115 28.9509L97.1834 36.9509L97.4793 37ZM98.8075 29V29.3H102.261V29V28.7H98.8075V29ZM102.261 29V29.3C102.819 29.3 103.269 29.4017 103.624 29.5894L103.764 29.3242L103.905 29.059C103.442 28.8144 102.89 28.7 102.261 28.7V29ZM103.764 29.3242L103.624 29.5894C103.976 29.7755 104.222 30.0373 104.373 30.3792L104.647 30.2578L104.922 30.1365C104.714 29.6659 104.371 29.3053 103.905 29.059L103.764 29.3242ZM104.647 30.2578L104.373 30.3792C104.523 30.7183 104.567 31.143 104.48 31.6699L104.776 31.7188L105.072 31.7676C105.173 31.1591 105.131 30.6098 104.922 30.1365L104.647 30.2578ZM104.776 31.7188L104.48 31.6703C104.394 32.1991 104.205 32.6315 103.923 32.9785L104.155 33.168L104.388 33.3574C104.746 32.918 104.971 32.3843 105.072 31.7672L104.776 31.7188ZM104.155 33.168L103.922 32.9787C103.638 33.3283 103.275 33.5961 102.826 33.7813L102.94 34.0586L103.055 34.3359C103.59 34.1149 104.037 33.7888 104.388 33.3573L104.155 33.168ZM102.94 34.0586L102.827 33.781C102.378 33.9646 101.868 34.0594 101.292 34.0594V34.3594V34.6594C101.934 34.6594 102.523 34.5536 103.054 34.3362L102.94 34.0586ZM101.292 34.3594V34.0594H99.2293V34.3594V34.6594H101.292V34.3594ZM99.2293 34.3594L99.5253 34.4087L99.8065 32.7212L99.5106 32.6719L99.2147 32.6226L98.9334 34.3101L99.2293 34.3594ZM99.5106 32.6719V32.9719H101.136V32.6719V32.3719H99.5106V32.6719ZM101.136 32.6719V32.9719C101.414 32.9719 101.671 32.9378 101.9 32.8635L101.807 32.5781L101.715 32.2928C101.559 32.3434 101.367 32.3719 101.136 32.3719V32.6719ZM101.807 32.5781L101.903 32.8623C102.141 32.7821 102.344 32.6528 102.503 32.4701L102.276 32.2734L102.05 32.0768C101.969 32.1701 101.859 32.2439 101.711 32.2939L101.807 32.5781ZM102.276 32.2734L102.505 32.468C102.668 32.2759 102.764 32.0357 102.807 31.7659L102.511 31.7188L102.214 31.6716C102.184 31.8602 102.124 31.9897 102.048 32.0789L102.276 32.2734ZM102.511 31.7188L102.807 31.7659C102.849 31.5008 102.835 31.2439 102.723 31.0241L102.456 31.1602L102.189 31.2963C102.222 31.3629 102.245 31.4783 102.214 31.6716L102.511 31.7188ZM102.456 31.1602L102.724 31.026C102.615 30.8066 102.433 30.6528 102.204 30.5613L102.093 30.8398L101.981 31.1184C102.091 31.1623 102.151 31.2221 102.188 31.2943L102.456 31.1602ZM102.093 30.8398L102.208 30.5628C101.991 30.4729 101.74 30.4344 101.464 30.4344V30.7344V31.0344C101.688 31.0344 101.855 31.0662 101.978 31.1169L102.093 30.8398ZM101.464 30.7344V30.4344H100.698V30.7344V31.0344H101.464V30.7344ZM100.698 30.7344L100.402 30.6849L99.3553 36.9506L99.6512 37L99.9471 37.0494L100.994 30.7838L100.698 30.7344ZM99.6512 37V36.7H97.4793V37V37.3H99.6512V37ZM102.776 33.3281L102.496 33.4344L103.886 37.1063L104.167 37L104.447 36.8937L103.057 33.2219L102.776 33.3281ZM104.167 37V36.7H101.807V37V37.3H104.167V37ZM101.807 37L102.089 36.8969L100.745 33.225L100.464 33.3281L100.182 33.4312L101.526 37.1031L101.807 37ZM100.464 33.3281V33.6281H102.776V33.3281V33.0281H100.464V33.3281ZM109.314 29L109.61 29.0491L109.668 28.7H109.314V29ZM107.986 37V37.3H108.241L108.282 37.0491L107.986 37ZM105.814 37L105.518 36.9509L105.461 37.3H105.814V37ZM107.143 29V28.7H106.888L106.847 28.9509L107.143 29ZM109.314 29L109.018 28.9509L107.69 36.9509L107.986 37L108.282 37.0491L109.61 29.0491L109.314 29ZM107.986 37V36.7H105.814V37V37.3H107.986V37ZM105.814 37L106.11 37.0491L107.438 29.0491L107.143 29L106.847 28.9509L105.518 36.9509L105.814 37ZM107.143 29V29.3H109.314V29V28.7H107.143V29ZM115.958 29V28.7H115.704L115.662 28.9508L115.958 29ZM118.13 29L118.426 29.0492L118.484 28.7H118.13V29ZM117.278 34.125L116.982 34.0758L116.982 34.0769L117.278 34.125ZM116.583 35.707L116.351 35.517L116.351 35.5171L116.583 35.707ZM115.2 36.7344L115.318 37.0102L115.319 37.0097L115.2 36.7344ZM111.583 36.7344L111.447 37.0018L111.448 37.0024L111.583 36.7344ZM110.544 35.707L110.274 35.8368L110.274 35.8387L110.544 35.707ZM110.372 34.125L110.076 34.0758L110.076 34.0769L110.372 34.125ZM111.224 29V28.7H110.969L110.928 28.9508L111.224 29ZM113.396 29L113.692 29.0492L113.75 28.7H113.396V29ZM112.575 33.9375L112.279 33.8883L112.279 33.8907L112.575 33.9375ZM112.634 34.5977L112.912 34.4849L112.634 34.5977ZM113.013 35.0547L112.851 35.3072L112.853 35.3089L113.013 35.0547ZM114.337 35.0547L114.475 35.321L114.476 35.3204L114.337 35.0547ZM115.138 33.9375L114.842 33.8883L114.841 33.8907L115.138 33.9375ZM115.958 29V29.3H118.13V29V28.7H115.958V29ZM118.13 29L117.834 28.9508L116.982 34.0758L117.278 34.125L117.574 34.1742L118.426 29.0492L118.13 29ZM117.278 34.125L116.982 34.0769C116.891 34.6381 116.68 35.1155 116.351 35.517L116.583 35.707L116.815 35.8971C117.216 35.4079 117.468 34.8307 117.575 34.1731L117.278 34.125ZM116.583 35.707L116.351 35.5171C116.021 35.9203 115.6 36.2346 115.081 36.459L115.2 36.7344L115.319 37.0097C115.92 36.7498 116.421 36.3792 116.815 35.8969L116.583 35.707ZM115.2 36.7344L115.082 36.4586C114.564 36.6803 113.982 36.7937 113.333 36.7937V37.0938V37.3938C114.053 37.3938 114.717 37.2676 115.318 37.0102L115.2 36.7344ZM113.333 37.0938V36.7937C112.676 36.7937 112.142 36.6797 111.718 36.4663L111.583 36.7344L111.448 37.0024C111.977 37.2683 112.609 37.3938 113.333 37.3938V37.0938ZM111.583 36.7344L111.719 36.4669C111.295 36.2516 110.999 35.9544 110.814 35.5754L110.544 35.707L110.274 35.8387C110.522 36.345 110.918 36.7328 111.447 37.0018L111.583 36.7344ZM110.544 35.707L110.815 35.5773C110.633 35.1997 110.577 34.7372 110.668 34.1731L110.372 34.125L110.076 34.0769C109.97 34.7316 110.028 35.3237 110.274 35.8367L110.544 35.707ZM110.372 34.125L110.668 34.1742L111.52 29.0492L111.224 29L110.928 28.9508L110.076 34.0758L110.372 34.125ZM111.224 29V29.3H113.396V29V28.7H111.224V29ZM113.396 29L113.1 28.9508L112.279 33.8883L112.575 33.9375L112.871 33.9867L113.692 29.0492L113.396 29ZM112.575 33.9375L112.279 33.8907C112.233 34.1809 112.253 34.4577 112.356 34.7104L112.634 34.5977L112.912 34.4849C112.858 34.3522 112.839 34.1889 112.872 33.9843L112.575 33.9375ZM112.634 34.5977L112.356 34.7104C112.457 34.9603 112.624 35.1616 112.851 35.3072L113.013 35.0547L113.175 34.8022C113.053 34.7238 112.967 34.6204 112.912 34.4849L112.634 34.5977ZM113.013 35.0547L112.853 35.3089C113.085 35.4537 113.353 35.5188 113.646 35.5188V35.2188V34.9187C113.443 34.9187 113.29 34.8744 113.172 34.8005L113.013 35.0547ZM113.646 35.2188V35.5188C113.941 35.5188 114.219 35.4537 114.475 35.321L114.337 35.0547L114.199 34.7884C114.033 34.8745 113.85 34.9187 113.646 34.9187V35.2188ZM114.337 35.0547L114.476 35.3204C114.73 35.1873 114.943 35.0047 115.111 34.7745L114.868 34.5977L114.626 34.4208C114.513 34.576 114.371 34.6981 114.198 34.789L114.337 35.0547ZM114.868 34.5977L115.111 34.7745C115.281 34.5414 115.388 34.2763 115.434 33.9843L115.138 33.9375L114.841 33.8907C114.809 34.0935 114.737 34.2685 114.626 34.4208L114.868 34.5977ZM115.138 33.9375L115.434 33.9867L116.254 29.0492L115.958 29L115.662 28.9508L114.842 33.8883L115.138 33.9375ZM120.042 29V28.7H119.788L119.746 28.9509L120.042 29ZM122.745 29L123.037 28.9287L122.981 28.7H122.745V29ZM123.855 33.5312L123.563 33.6026L123.619 33.8313H123.855V33.5312ZM123.948 33.5312V33.8313H124.122L124.208 33.681L123.948 33.5312ZM126.558 29V28.7H126.384L126.298 28.8503L126.558 29ZM129.261 29L129.557 29.0491L129.615 28.7H129.261V29ZM127.933 37V37.3H128.187L128.229 37.0491L127.933 37ZM125.808 37L125.512 36.951L125.454 37.3H125.808V37ZM126.573 32.375L126.869 32.424L126.927 32.075H126.573V32.375ZM126.511 32.375V32.075H126.334L126.249 32.2295L126.511 32.375ZM123.98 36.9375V37.2375H124.156L124.242 37.083L123.98 36.9375ZM122.698 36.9375L122.406 37.0023L122.458 37.2375H122.698V36.9375ZM121.683 32.3438L121.976 32.279L121.924 32.0437H121.683V32.3438ZM121.62 32.3438V32.0437H121.366L121.324 32.2941L121.62 32.3438ZM120.839 37V37.3H121.093L121.135 37.0496L120.839 37ZM118.714 37L118.418 36.9509L118.36 37.3H118.714V37ZM120.042 29V29.3H122.745V29V28.7H120.042V29ZM122.745 29L122.454 29.0713L123.563 33.6026L123.855 33.5312L124.146 33.4599L123.037 28.9287L122.745 29ZM123.855 33.5312V33.8313H123.948V33.5312V33.2312H123.855V33.5312ZM123.948 33.5312L124.208 33.681L126.818 29.1497L126.558 29L126.298 28.8503L123.688 33.3815L123.948 33.5312ZM126.558 29V29.3H129.261V29V28.7H126.558V29ZM129.261 29L128.965 28.9509L127.637 36.9509L127.933 37L128.229 37.0491L129.557 29.0491L129.261 29ZM127.933 37V36.7H125.808V37V37.3H127.933V37ZM125.808 37L126.104 37.049L126.869 32.424L126.573 32.375L126.277 32.326L125.512 36.951L125.808 37ZM126.573 32.375V32.075H126.511V32.375V32.675H126.573V32.375ZM126.511 32.375L126.249 32.2295L123.717 36.792L123.98 36.9375L124.242 37.083L126.773 32.5205L126.511 32.375ZM123.98 36.9375V36.6375H122.698V36.9375V37.2375H123.98V36.9375ZM122.698 36.9375L122.991 36.8727L121.976 32.279L121.683 32.3438L121.39 32.4085L122.406 37.0023L122.698 36.9375ZM121.683 32.3438V32.0437H121.62V32.3438V32.6437H121.683V32.3438ZM121.62 32.3438L121.324 32.2941L120.543 36.9504L120.839 37L121.135 37.0496L121.916 32.3934L121.62 32.3438ZM120.839 37V36.7H118.714V37V37.3H120.839V37ZM118.714 37L119.01 37.0491L120.338 29.0491L120.042 29L119.746 28.9509L118.418 36.9509L118.714 37Z" fill="black" mask="url(#path-6-outside-1_40_215)"/>
<defs>
<linearGradient id="paint0_linear_40_215" x1="-118.574" y1="-93.7469" x2="-11.6584" y2="167.76" gradientUnits="userSpaceOnUse">
<stop stop-color="#3A3A3A"/>
<stop offset="0.474394" stop-color="#B1B1B1"/>
<stop offset="0.583499" stop-color="#EAEAEA"/>
<stop offset="0.8125" stop-color="#D9D9D9"/>
</linearGradient>
<linearGradient id="paint1_linear_40_215" x1="102.16" y1="64.9784" x2="59.6886" y2="-15.5028" gradientUnits="userSpaceOnUse">
<stop offset="0.537104" stop-color="#FFD455"/>
<stop offset="0.760767" stop-color="#FCFBE7"/>
<stop offset="0.879342" stop-color="#FFD455"/>
</linearGradient>
<clipPath id="clip0_40_215">
<rect width="61.3497" height="57.844" fill="white" transform="translate(14.0225 2.31018)"/>
</clipPath>
</defs>
</svg>
