<svg width="543" height="268" viewBox="0 0 543 268" fill="none" xmlns="http://www.w3.org/2000/svg">
<path d="M271.5 3C346.114 3 413.516 17.9113 462.153 41.8818C510.983 65.947 540 98.6282 540 133.807C540 168.985 510.983 201.666 462.153 225.731C413.516 249.702 346.114 264.613 271.5 264.613C196.886 264.613 129.484 249.702 80.8467 225.731C32.0174 201.666 3 168.985 3 133.807C3.00006 98.6282 32.0175 65.947 80.8467 41.8818C129.484 17.9113 196.886 3 271.5 3Z" fill="url(#paint0_linear_48_40)" stroke="black" stroke-width="6"/>
<rect x="64.7979" y="133.238" width="210.361" height="53.4523" fill="#EFEFEF"/>
<g clip-path="url(#clip0_48_40)">
<path fill-rule="evenodd" clip-rule="evenodd" d="M75.1559 101.073C53.5857 90.7372 56.061 79.2162 77.7294 80.4202L82.5817 88.9961L92.581 59.6751C96.51 48.1356 103.052 37.6704 115.88 37.6704L296.148 37.6703C308.976 37.6703 316.363 47.9317 319.466 59.6564L326.971 88.0883L331.293 80.42C353.57 79.1976 355.554 91.4038 331.98 101.943L335.811 107.481C351.311 122.503 349.857 149.064 347.441 186.165L294.85 181.517L295.062 201.242C295.062 205.021 291.781 208.114 287.774 208.114H256.676C252.668 208.114 249.387 205.021 249.387 201.242V192.833H102.404V201.242C102.404 205.021 99.1228 208.114 95.1152 208.114H64.0172C60.0096 208.114 56.7289 205.021 56.7289 201.242V182.516C56.7289 182.145 56.7682 181.793 56.8075 181.441C54.4501 152.973 51.1301 115.742 75.1559 101.073ZM102.927 158.461L86.8919 155.182C80.3697 154.497 78.6213 157.09 80.8412 162.388L83.8273 168.36C84.7899 170.12 85.308 170.421 85.8684 170.701C87.5927 171.563 91.4102 171.219 93.748 171.312L106.797 171.497C112.749 171.479 115.323 172.686 113.457 167.537C111.924 162.703 108.428 159.665 102.927 158.461ZM162.006 135.45H190.295C191.965 135.45 193.34 136.747 193.34 138.321C193.34 139.896 191.965 141.192 190.295 141.192H162.006C160.337 141.192 158.961 139.896 158.961 138.321C158.942 136.747 160.317 135.45 162.006 135.45ZM289.272 159.794L316.893 156.515C323.415 155.83 325.163 158.423 322.944 163.72L319.958 170.555C318.995 172.315 317.718 170.144 316.225 171.033C314.477 172.052 312.375 172.552 310.037 172.645L285.402 172.83C279.45 172.812 276.876 174.019 278.742 168.87C280.275 164.035 283.771 160.998 289.272 159.794ZM92.9543 95.4604L315.891 95.4603L308.367 65.9726C306.304 56.9892 300.371 49.2098 290.588 49.2098L120.123 49.2099C110.36 49.2099 105.35 57.193 102.345 65.9727L92.9543 95.4604Z" fill="black"/>
</g>
<rect x="125.872" y="133.238" width="210.361" height="53.4523" fill="#EFEFEF"/>
<path fill-rule="evenodd" clip-rule="evenodd" d="M126.884 101.073C105.314 90.7372 107.79 79.2162 129.458 80.4202L134.31 88.996L144.31 59.675C148.239 48.1356 154.78 37.6704 167.609 37.6704H295.497C308.326 37.6704 315.712 47.9318 318.816 59.6565L326.32 88.0884L330.642 80.4202C352.92 79.1977 354.904 91.404 331.33 101.943L335.161 107.481C350.661 122.503 349.207 149.064 346.79 186.165V201.242C346.79 205.02 343.51 208.114 339.502 208.114H308.404C304.397 208.114 301.116 205.02 301.116 201.242V192.833H154.132V201.242C154.132 205.02 150.851 208.114 146.844 208.114H115.746C111.738 208.114 108.457 205.02 108.457 201.242V182.516C108.457 182.145 108.497 181.793 108.536 181.441C106.179 152.972 102.859 115.742 126.884 101.073ZM158.45 157.417L139.593 154.138C133.071 153.453 131.323 156.046 133.543 161.344L136.218 167.316C137.181 169.076 137.453 169.625 138.946 170.514C140.695 171.533 143.484 171.283 145.822 171.376L161.693 171.561C167.645 171.543 170.846 171.642 168.979 166.493C167.447 161.659 163.95 158.621 158.45 157.417ZM298.404 157.435L316.87 154.138C323.392 153.453 325.14 156.046 322.92 161.344L320.796 167.316C319.834 169.076 318.76 169.014 317.267 169.903C315.518 170.921 311.724 171.283 309.386 171.376L293.906 171.58C287.954 171.561 286.008 171.661 287.874 166.511C289.406 161.677 292.903 158.639 298.404 157.435ZM144.683 95.4604H315.241L307.717 65.9727C305.654 56.9893 299.721 49.2099 289.938 49.2099H171.852C162.088 49.2099 157.079 57.193 154.073 65.9727L144.683 95.4604Z" fill="url(#paint1_linear_48_40)"/>
<mask id="path-6-outside-1_48_40" maskUnits="userSpaceOnUse" x="158" y="110" width="361" height="36" fill="black">
<rect fill="white" x="158" y="110" width="361" height="36"/>
<path d="M159.313 119L160.5 112H188.312L187.125 119H177.5L173.375 144H164.813L168.938 119H159.313ZM189.79 144L195.102 112H208.915C211.29 112 213.295 112.432 214.93 113.297C216.566 114.161 217.743 115.406 218.461 117.031C219.18 118.656 219.352 120.604 218.977 122.875C218.602 125.167 217.774 127.099 216.493 128.672C215.222 130.234 213.602 131.422 211.633 132.234C209.675 133.036 207.477 133.437 205.04 133.437H196.79L197.915 126.688H204.415C205.435 126.688 206.331 126.562 207.102 126.312C207.873 126.052 208.498 125.646 208.977 125.094C209.456 124.531 209.769 123.792 209.915 122.875C210.06 121.958 209.987 121.214 209.696 120.641C209.404 120.057 208.92 119.63 208.243 119.359C207.566 119.078 206.727 118.937 205.727 118.937H202.665L198.477 144H189.79ZM210.977 129.312L216.54 144H207.102L201.727 129.312H210.977ZM231.442 144H222.067L237.942 112H249.817L255.067 144H245.692L242.567 120.813H242.317L231.442 144ZM231.817 131.375H249.442L248.317 137.875H230.692L231.817 131.375ZM294.669 112L289.357 144H282.107L273.357 127.187H273.169L270.357 144H261.669L266.982 112H274.357L282.982 128.75H283.232L285.982 112H294.669ZM317.861 122C317.955 120.969 317.705 120.161 317.111 119.578C316.518 118.984 315.518 118.687 314.111 118.687C313.215 118.687 312.465 118.792 311.861 119C311.268 119.208 310.804 119.495 310.471 119.859C310.148 120.224 309.945 120.646 309.861 121.125C309.768 121.5 309.773 121.844 309.877 122.156C309.991 122.458 310.205 122.734 310.518 122.984C310.84 123.234 311.262 123.458 311.783 123.656C312.314 123.854 312.945 124.031 313.674 124.187L316.174 124.75C317.882 125.125 319.314 125.62 320.471 126.234C321.637 126.839 322.554 127.557 323.221 128.391C323.887 129.224 324.325 130.156 324.533 131.187C324.752 132.219 324.757 133.344 324.549 134.562C324.195 136.667 323.377 138.448 322.096 139.906C320.814 141.365 319.143 142.474 317.08 143.234C315.018 143.995 312.632 144.375 309.924 144.375C307.153 144.375 304.799 143.964 302.861 143.141C300.934 142.307 299.538 141.036 298.674 139.328C297.82 137.609 297.611 135.417 298.049 132.75H306.299C306.174 133.729 306.278 134.552 306.611 135.219C306.945 135.885 307.481 136.391 308.221 136.734C308.96 137.078 309.882 137.25 310.986 137.25C311.924 137.25 312.726 137.135 313.393 136.906C314.059 136.677 314.585 136.359 314.971 135.953C315.356 135.547 315.59 135.083 315.674 134.562C315.757 134.083 315.674 133.656 315.424 133.281C315.174 132.906 314.721 132.568 314.064 132.266C313.408 131.964 312.507 131.687 311.361 131.437L308.299 130.75C305.58 130.125 303.528 129.094 302.143 127.656C300.757 126.219 300.268 124.25 300.674 121.75C301.007 119.708 301.846 117.927 303.189 116.406C304.544 114.875 306.262 113.687 308.346 112.844C310.439 111.99 312.757 111.562 315.299 111.562C317.882 111.562 320.044 111.995 321.783 112.859C323.533 113.724 324.788 114.937 325.549 116.5C326.32 118.062 326.528 119.896 326.174 122H317.861ZM329.811 144L335.123 112H357.623L356.436 119H342.623L341.748 124.5H354.186L352.998 131.5H340.561L338.498 144H329.811ZM359.026 144L364.339 112H387.401L386.214 119H371.839L370.964 124.5H384.151L382.964 131.5H369.776L368.901 137H383.214L382.026 144H359.026ZM389.917 144L395.23 112H409.042C411.417 112 413.423 112.432 415.058 113.297C416.693 114.161 417.87 115.406 418.589 117.031C419.308 118.656 419.48 120.604 419.105 122.875C418.73 125.167 417.902 127.099 416.62 128.672C415.35 130.234 413.73 131.422 411.761 132.234C409.803 133.036 407.605 133.437 405.167 133.437H396.917L398.042 126.688H404.542C405.563 126.688 406.459 126.562 407.23 126.312C408.001 126.052 408.626 125.646 409.105 125.094C409.584 124.531 409.897 123.792 410.042 122.875C410.188 121.958 410.115 121.214 409.824 120.641C409.532 120.057 409.048 119.63 408.37 119.359C407.693 119.078 406.855 118.937 405.855 118.937H402.792L398.605 144H389.917ZM411.105 129.312L416.667 144H407.23L401.855 129.312H411.105ZM437.258 112L431.945 144H423.258L428.57 112H437.258ZM463.832 112H472.52L469.114 132.5C468.718 134.937 467.791 137.047 466.332 138.828C464.884 140.599 463.041 141.969 460.801 142.937C458.562 143.896 456.072 144.375 453.332 144.375C450.572 144.375 448.239 143.896 446.332 142.937C444.426 141.969 443.041 140.599 442.176 138.828C441.322 137.047 441.093 134.937 441.489 132.5L444.895 112H453.582L450.301 131.75C450.145 132.74 450.223 133.62 450.535 134.391C450.848 135.161 451.353 135.771 452.051 136.219C452.749 136.656 453.593 136.875 454.582 136.875C455.582 136.875 456.504 136.656 457.348 136.219C458.202 135.771 458.91 135.161 459.473 134.391C460.035 133.62 460.395 132.74 460.551 131.75L463.832 112ZM480.169 112H490.981L495.419 130.125H495.794L506.231 112H517.044L511.731 144H503.231L506.294 125.5H506.044L495.919 143.75H490.794L486.731 125.375H486.481L483.356 144H474.856L480.169 112Z"/>
</mask>
<path d="M159.313 119L160.5 112H188.312L187.125 119H177.5L173.375 144H164.813L168.938 119H159.313ZM189.79 144L195.102 112H208.915C211.29 112 213.295 112.432 214.93 113.297C216.566 114.161 217.743 115.406 218.461 117.031C219.18 118.656 219.352 120.604 218.977 122.875C218.602 125.167 217.774 127.099 216.493 128.672C215.222 130.234 213.602 131.422 211.633 132.234C209.675 133.036 207.477 133.437 205.04 133.437H196.79L197.915 126.688H204.415C205.435 126.688 206.331 126.562 207.102 126.312C207.873 126.052 208.498 125.646 208.977 125.094C209.456 124.531 209.769 123.792 209.915 122.875C210.06 121.958 209.987 121.214 209.696 120.641C209.404 120.057 208.92 119.63 208.243 119.359C207.566 119.078 206.727 118.937 205.727 118.937H202.665L198.477 144H189.79ZM210.977 129.312L216.54 144H207.102L201.727 129.312H210.977ZM231.442 144H222.067L237.942 112H249.817L255.067 144H245.692L242.567 120.813H242.317L231.442 144ZM231.817 131.375H249.442L248.317 137.875H230.692L231.817 131.375ZM294.669 112L289.357 144H282.107L273.357 127.187H273.169L270.357 144H261.669L266.982 112H274.357L282.982 128.75H283.232L285.982 112H294.669ZM317.861 122C317.955 120.969 317.705 120.161 317.111 119.578C316.518 118.984 315.518 118.687 314.111 118.687C313.215 118.687 312.465 118.792 311.861 119C311.268 119.208 310.804 119.495 310.471 119.859C310.148 120.224 309.945 120.646 309.861 121.125C309.768 121.5 309.773 121.844 309.877 122.156C309.991 122.458 310.205 122.734 310.518 122.984C310.84 123.234 311.262 123.458 311.783 123.656C312.314 123.854 312.945 124.031 313.674 124.187L316.174 124.75C317.882 125.125 319.314 125.62 320.471 126.234C321.637 126.839 322.554 127.557 323.221 128.391C323.887 129.224 324.325 130.156 324.533 131.187C324.752 132.219 324.757 133.344 324.549 134.562C324.195 136.667 323.377 138.448 322.096 139.906C320.814 141.365 319.143 142.474 317.08 143.234C315.018 143.995 312.632 144.375 309.924 144.375C307.153 144.375 304.799 143.964 302.861 143.141C300.934 142.307 299.538 141.036 298.674 139.328C297.82 137.609 297.611 135.417 298.049 132.75H306.299C306.174 133.729 306.278 134.552 306.611 135.219C306.945 135.885 307.481 136.391 308.221 136.734C308.96 137.078 309.882 137.25 310.986 137.25C311.924 137.25 312.726 137.135 313.393 136.906C314.059 136.677 314.585 136.359 314.971 135.953C315.356 135.547 315.59 135.083 315.674 134.562C315.757 134.083 315.674 133.656 315.424 133.281C315.174 132.906 314.721 132.568 314.064 132.266C313.408 131.964 312.507 131.687 311.361 131.437L308.299 130.75C305.58 130.125 303.528 129.094 302.143 127.656C300.757 126.219 300.268 124.25 300.674 121.75C301.007 119.708 301.846 117.927 303.189 116.406C304.544 114.875 306.262 113.687 308.346 112.844C310.439 111.99 312.757 111.562 315.299 111.562C317.882 111.562 320.044 111.995 321.783 112.859C323.533 113.724 324.788 114.937 325.549 116.5C326.32 118.062 326.528 119.896 326.174 122H317.861ZM329.811 144L335.123 112H357.623L356.436 119H342.623L341.748 124.5H354.186L352.998 131.5H340.561L338.498 144H329.811ZM359.026 144L364.339 112H387.401L386.214 119H371.839L370.964 124.5H384.151L382.964 131.5H369.776L368.901 137H383.214L382.026 144H359.026ZM389.917 144L395.23 112H409.042C411.417 112 413.423 112.432 415.058 113.297C416.693 114.161 417.87 115.406 418.589 117.031C419.308 118.656 419.48 120.604 419.105 122.875C418.73 125.167 417.902 127.099 416.62 128.672C415.35 130.234 413.73 131.422 411.761 132.234C409.803 133.036 407.605 133.437 405.167 133.437H396.917L398.042 126.688H404.542C405.563 126.688 406.459 126.562 407.23 126.312C408.001 126.052 408.626 125.646 409.105 125.094C409.584 124.531 409.897 123.792 410.042 122.875C410.188 121.958 410.115 121.214 409.824 120.641C409.532 120.057 409.048 119.63 408.37 119.359C407.693 119.078 406.855 118.937 405.855 118.937H402.792L398.605 144H389.917ZM411.105 129.312L416.667 144H407.23L401.855 129.312H411.105ZM437.258 112L431.945 144H423.258L428.57 112H437.258ZM463.832 112H472.52L469.114 132.5C468.718 134.937 467.791 137.047 466.332 138.828C464.884 140.599 463.041 141.969 460.801 142.937C458.562 143.896 456.072 144.375 453.332 144.375C450.572 144.375 448.239 143.896 446.332 142.937C444.426 141.969 443.041 140.599 442.176 138.828C441.322 137.047 441.093 134.937 441.489 132.5L444.895 112H453.582L450.301 131.75C450.145 132.74 450.223 133.62 450.535 134.391C450.848 135.161 451.353 135.771 452.051 136.219C452.749 136.656 453.593 136.875 454.582 136.875C455.582 136.875 456.504 136.656 457.348 136.219C458.202 135.771 458.91 135.161 459.473 134.391C460.035 133.62 460.395 132.74 460.551 131.75L463.832 112ZM480.169 112H490.981L495.419 130.125H495.794L506.231 112H517.044L511.731 144H503.231L506.294 125.5H506.044L495.919 143.75H490.794L486.731 125.375H486.481L483.356 144H474.856L480.169 112Z" fill="white"/>
<path d="M159.313 119L158.327 118.833L158.129 120H159.313V119ZM160.5 112V111H159.655L159.514 111.833L160.5 112ZM188.312 112L189.298 112.167L189.496 111H188.312V112ZM187.125 119V120H187.97L188.111 119.167L187.125 119ZM177.5 119V118H176.651L176.513 118.837L177.5 119ZM173.375 144V145H174.224L174.362 144.163L173.375 144ZM164.813 144L163.826 143.837L163.634 145H164.813V144ZM168.938 119L169.924 119.163L170.116 118H168.938V119ZM159.313 119L160.298 119.167L161.486 112.167L160.5 112L159.514 111.833L158.327 118.833L159.313 119ZM160.5 112V113H188.312V112V111H160.5V112ZM188.312 112L187.327 111.833L186.139 118.833L187.125 119L188.111 119.167L189.298 112.167L188.312 112ZM187.125 119V118H177.5V119V120H187.125V119ZM177.5 119L176.513 118.837L172.388 143.837L173.375 144L174.362 144.163L178.487 119.163L177.5 119ZM173.375 144V143H164.813V144V145H173.375V144ZM164.813 144L165.799 144.163L169.924 119.163L168.938 119L167.951 118.837L163.826 143.837L164.813 144ZM168.938 119V118H159.313V119V120H168.938V119ZM189.79 144L188.803 143.836L188.61 145H189.79V144ZM195.102 112V111H194.254L194.116 111.836L195.102 112ZM218.461 117.031L219.376 116.627L219.376 116.627L218.461 117.031ZM218.977 122.875L217.99 122.712L217.99 122.714L218.977 122.875ZM216.493 128.672L215.717 128.04L215.717 128.041L216.493 128.672ZM211.633 132.234L212.012 133.16L212.015 133.159L211.633 132.234ZM196.79 133.437L195.803 133.273L195.609 134.437H196.79V133.437ZM197.915 126.688V125.688H197.067L196.928 126.523L197.915 126.688ZM207.102 126.312L207.411 127.264L207.422 127.26L207.102 126.312ZM208.977 125.094L209.732 125.749L209.738 125.742L208.977 125.094ZM209.915 122.875L208.927 122.718L208.927 122.718L209.915 122.875ZM209.696 120.641L208.801 121.088L208.805 121.094L209.696 120.641ZM208.243 119.359L207.859 120.283L207.871 120.288L208.243 119.359ZM202.665 118.937V117.937H201.818L201.678 118.773L202.665 118.937ZM198.477 144V145H199.324L199.463 144.165L198.477 144ZM210.977 129.312L211.912 128.958L211.668 128.312H210.977V129.312ZM216.54 144V145H217.988L217.475 143.646L216.54 144ZM207.102 144L206.163 144.344L206.403 145H207.102V144ZM201.727 129.312V128.312H200.296L200.788 129.656L201.727 129.312ZM189.79 144L190.776 144.164L196.089 112.164L195.102 112L194.116 111.836L188.803 143.836L189.79 144ZM195.102 112V113H208.915V112V111H195.102V112ZM208.915 112V113C211.172 113 213.006 113.411 214.463 114.181L214.93 113.297L215.398 112.413C213.583 111.454 211.407 111 208.915 111V112ZM214.93 113.297L214.463 114.181C215.908 114.945 216.923 116.025 217.547 117.436L218.461 117.031L219.376 116.627C218.562 114.787 217.223 113.378 215.398 112.413L214.93 113.297ZM218.461 117.031L217.547 117.436C218.167 118.837 218.343 120.577 217.99 122.712L218.977 122.875L219.964 123.038C220.361 120.631 220.194 118.476 219.376 116.627L218.461 117.031ZM218.977 122.875L217.99 122.714C217.639 124.858 216.873 126.622 215.717 128.04L216.493 128.672L217.268 129.303C218.675 127.576 219.565 125.475 219.964 123.036L218.977 122.875ZM216.493 128.672L215.717 128.041C214.557 129.467 213.076 130.557 211.252 131.31L211.633 132.234L212.015 133.159C214.128 132.287 215.887 131.002 217.268 129.303L216.493 128.672ZM211.633 132.234L211.254 131.309C209.433 132.055 207.367 132.437 205.04 132.437V133.437V134.437C207.587 134.437 209.917 134.018 212.012 133.16L211.633 132.234ZM205.04 133.437V132.437H196.79V133.437V134.437H205.04V133.437ZM196.79 133.437L197.776 133.602L198.901 126.852L197.915 126.688L196.928 126.523L195.803 133.273L196.79 133.437ZM197.915 126.688V127.688H204.415V126.688V125.688H197.915V126.688ZM204.415 126.688V127.688C205.514 127.688 206.518 127.553 207.411 127.264L207.102 126.312L206.794 125.361C206.144 125.572 205.357 125.688 204.415 125.688V126.688ZM207.102 126.312L207.422 127.26C208.342 126.949 209.124 126.45 209.732 125.749L208.977 125.094L208.222 124.438C207.872 124.841 207.404 125.155 206.782 125.365L207.102 126.312ZM208.977 125.094L209.738 125.742C210.364 125.008 210.735 124.084 210.902 123.032L209.915 122.875L208.927 122.718C208.803 123.499 208.549 124.054 208.216 124.445L208.977 125.094ZM209.915 122.875L210.902 123.032C211.067 121.996 211.009 121.015 210.587 120.187L209.696 120.641L208.805 121.094C208.966 121.412 209.054 121.921 208.927 122.718L209.915 122.875ZM209.696 120.641L210.59 120.193C210.176 119.365 209.49 118.781 208.614 118.431L208.243 119.359L207.871 120.288C208.35 120.479 208.632 120.75 208.801 121.088L209.696 120.641ZM208.243 119.359L208.626 118.436C207.792 118.089 206.814 117.937 205.727 117.937V118.937V119.937C206.64 119.937 207.339 120.067 207.859 120.283L208.243 119.359ZM205.727 118.937V117.937H202.665V118.937V119.937H205.727V118.937ZM202.665 118.937L201.678 118.773L197.491 143.835L198.477 144L199.463 144.165L203.651 119.102L202.665 118.937ZM198.477 144V143H189.79V144V145H198.477V144ZM210.977 129.312L210.042 129.667L215.604 144.354L216.54 144L217.475 143.646L211.912 128.958L210.977 129.312ZM216.54 144V143H207.102V144V145H216.54V144ZM207.102 144L208.041 143.656L202.666 128.969L201.727 129.312L200.788 129.656L206.163 144.344L207.102 144ZM201.727 129.312V130.312H210.977V129.312V128.312H201.727V129.312ZM231.442 144V145H232.078L232.348 144.425L231.442 144ZM222.067 144L221.172 143.556L220.455 145H222.067V144ZM237.942 112V111H237.322L237.047 111.556L237.942 112ZM249.817 112L250.804 111.838L250.667 111H249.817V112ZM255.067 144V145H256.245L256.054 143.838L255.067 144ZM245.692 144L244.701 144.134L244.818 145H245.692V144ZM242.567 120.813L243.558 120.679L243.442 119.813H242.567V120.813ZM242.317 120.813V119.813H241.682L241.412 120.388L242.317 120.813ZM231.817 131.375V130.375H230.976L230.832 131.204L231.817 131.375ZM249.442 131.375L250.428 131.546L250.63 130.375H249.442V131.375ZM248.317 137.875V138.875H249.159L249.303 138.046L248.317 137.875ZM230.692 137.875L229.707 137.704L229.504 138.875H230.692V137.875ZM231.442 144V143H222.067V144V145H231.442V144ZM222.067 144L222.963 144.444L238.838 112.444L237.942 112L237.047 111.556L221.172 143.556L222.067 144ZM237.942 112V113H249.817V112V111H237.942V112ZM249.817 112L248.831 112.162L254.081 144.162L255.067 144L256.054 143.838L250.804 111.838L249.817 112ZM255.067 144V143H245.692V144V145H255.067V144ZM245.692 144L246.683 143.866L243.558 120.679L242.567 120.813L241.576 120.946L244.701 144.134L245.692 144ZM242.567 120.813V119.813H242.317V120.813V121.813H242.567V120.813ZM242.317 120.813L241.412 120.388L230.537 143.575L231.442 144L232.348 144.425L243.223 121.237L242.317 120.813ZM231.817 131.375V132.375H249.442V131.375V130.375H231.817V131.375ZM249.442 131.375L248.457 131.204L247.332 137.704L248.317 137.875L249.303 138.046L250.428 131.546L249.442 131.375ZM248.317 137.875V136.875H230.692V137.875V138.875H248.317V137.875ZM230.692 137.875L231.678 138.046L232.803 131.546L231.817 131.375L230.832 131.204L229.707 137.704L230.692 137.875ZM294.669 112L295.656 112.164L295.849 111H294.669V112ZM289.357 144V145H290.205L290.343 144.164L289.357 144ZM282.107 144L281.22 144.462L281.5 145H282.107V144ZM273.357 127.187L274.244 126.726L273.964 126.187H273.357V127.187ZM273.169 127.187V126.187H272.323L272.183 127.023L273.169 127.187ZM270.357 144V145H271.203L271.343 144.165L270.357 144ZM261.669 144L260.683 143.836L260.49 145H261.669V144ZM266.982 112V111H266.134L265.995 111.836L266.982 112ZM274.357 112L275.246 111.542L274.967 111H274.357V112ZM282.982 128.75L282.093 129.208L282.372 129.75H282.982V128.75ZM283.232 128.75V129.75H284.081L284.219 128.912L283.232 128.75ZM285.982 112V111H285.133L284.995 111.838L285.982 112ZM294.669 112L293.683 111.836L288.37 143.836L289.357 144L290.343 144.164L295.656 112.164L294.669 112ZM289.357 144V143H282.107V144V145H289.357V144ZM282.107 144L282.994 143.538L274.244 126.726L273.357 127.187L272.47 127.649L281.22 144.462L282.107 144ZM273.357 127.187V126.187H273.169V127.187V128.187H273.357V127.187ZM273.169 127.187L272.183 127.023L269.371 143.835L270.357 144L271.343 144.165L274.156 127.352L273.169 127.187ZM270.357 144V143H261.669V144V145H270.357V144ZM261.669 144L262.656 144.164L267.968 112.164L266.982 112L265.995 111.836L260.683 143.836L261.669 144ZM266.982 112V113H274.357V112V111H266.982V112ZM274.357 112L273.468 112.458L282.093 129.208L282.982 128.75L283.871 128.292L275.246 111.542L274.357 112ZM282.982 128.75V129.75H283.232V128.75V127.75H282.982V128.75ZM283.232 128.75L284.219 128.912L286.969 112.162L285.982 112L284.995 111.838L282.245 128.588L283.232 128.75ZM285.982 112V113H294.669V112V111H285.982V112ZM317.861 122L316.865 121.909L316.766 123H317.861V122ZM317.111 119.578L316.404 120.285L316.41 120.291L317.111 119.578ZM311.861 119L311.535 118.055L311.53 118.056L311.861 119ZM310.471 119.859L309.733 119.185L309.727 119.19L309.722 119.196L310.471 119.859ZM309.861 121.125L310.831 121.368L310.84 121.332L310.846 121.296L309.861 121.125ZM309.877 122.156L308.928 122.472L308.935 122.492L308.942 122.511L309.877 122.156ZM310.518 122.984L309.893 123.765L309.899 123.77L309.905 123.775L310.518 122.984ZM311.783 123.656L311.428 124.591L311.434 124.593L311.783 123.656ZM313.674 124.187L313.893 123.212L313.883 123.21L313.674 124.187ZM316.174 124.75L315.954 125.726L315.959 125.727L316.174 124.75ZM320.471 126.234L320.001 127.117L320.011 127.122L320.471 126.234ZM323.221 128.391L322.44 129.015L322.44 129.015L323.221 128.391ZM324.533 131.187L323.553 131.386L323.555 131.395L324.533 131.187ZM324.549 134.562L323.563 134.394L323.563 134.397L324.549 134.562ZM322.096 139.906L321.344 139.246L321.344 139.246L322.096 139.906ZM317.08 143.234L316.734 142.296L316.734 142.296L317.08 143.234ZM302.861 143.141L302.464 144.059L302.47 144.061L302.861 143.141ZM298.674 139.328L297.778 139.773L297.782 139.78L298.674 139.328ZM298.049 132.75V131.75H297.199L297.062 132.588L298.049 132.75ZM306.299 132.75L307.291 132.877L307.435 131.75H306.299V132.75ZM306.611 135.219L307.506 134.772L307.506 134.772L306.611 135.219ZM308.221 136.734L307.799 137.641L307.799 137.641L308.221 136.734ZM314.971 135.953L314.245 135.265L314.245 135.265L314.971 135.953ZM315.674 134.562L314.688 134.391L314.686 134.405L315.674 134.562ZM315.424 133.281L314.592 133.836L315.424 133.281ZM314.064 132.266L313.646 133.174L313.646 133.174L314.064 132.266ZM311.361 131.437L311.142 132.413L311.148 132.415L311.361 131.437ZM308.299 130.75L308.075 131.725L308.08 131.726L308.299 130.75ZM302.143 127.656L302.863 126.962L302.143 127.656ZM300.674 121.75L299.687 121.589L299.687 121.59L300.674 121.75ZM303.189 116.406L302.44 115.744L302.44 115.744L303.189 116.406ZM308.346 112.844L308.721 113.771L308.723 113.77L308.346 112.844ZM321.783 112.859L321.338 113.755L321.34 113.756L321.783 112.859ZM325.549 116.5L324.65 116.938L324.652 116.942L325.549 116.5ZM326.174 122V123H327.02L327.16 122.166L326.174 122ZM317.861 122L318.857 122.091C318.971 120.84 318.671 119.709 317.812 118.865L317.111 119.578L316.41 120.291C316.739 120.614 316.939 121.097 316.865 121.909L317.861 122ZM317.111 119.578L317.818 118.871C316.944 117.997 315.614 117.687 314.111 117.687V118.687V119.687C315.421 119.687 316.091 119.972 316.404 120.285L317.111 119.578ZM314.111 118.687V117.687C313.146 117.687 312.277 117.799 311.535 118.055L311.861 119L312.187 119.945C312.654 119.785 313.285 119.687 314.111 119.687V118.687ZM311.861 119L311.53 118.056C310.822 118.305 310.204 118.669 309.733 119.185L310.471 119.859L311.209 120.534C311.404 120.32 311.713 120.112 312.192 119.944L311.861 119ZM310.471 119.859L309.722 119.196C309.276 119.7 308.991 120.292 308.876 120.954L309.861 121.125L310.846 121.296C310.898 121 311.019 120.748 311.219 120.522L310.471 119.859ZM309.861 121.125L308.891 120.882C308.759 121.409 308.754 121.95 308.928 122.472L309.877 122.156L310.826 121.84C310.791 121.737 310.776 121.591 310.831 121.368L309.861 121.125ZM309.877 122.156L308.942 122.511C309.133 123.016 309.474 123.43 309.893 123.765L310.518 122.984L311.142 122.204C310.936 122.039 310.849 121.901 310.812 121.802L309.877 122.156ZM310.518 122.984L309.905 123.775C310.329 124.103 310.846 124.37 311.428 124.591L311.783 123.656L312.138 122.721C311.679 122.547 311.352 122.366 311.13 122.194L310.518 122.984ZM311.783 123.656L311.434 124.593C312.022 124.813 312.701 125.002 313.464 125.165L313.674 124.187L313.883 123.21C313.188 123.061 312.606 122.896 312.132 122.719L311.783 123.656ZM313.674 124.187L313.454 125.163L315.954 125.726L316.174 124.75L316.393 123.774L313.893 123.212L313.674 124.187ZM316.174 124.75L315.959 125.727C317.607 126.088 318.947 126.557 320.001 127.117L320.471 126.234L320.94 125.351C319.682 124.683 318.158 124.162 316.388 123.773L316.174 124.75ZM320.471 126.234L320.011 127.122C321.081 127.677 321.878 128.313 322.44 129.015L323.221 128.391L324.001 127.766C323.23 126.801 322.193 126 320.93 125.346L320.471 126.234ZM323.221 128.391L322.44 129.015C323.008 129.726 323.377 130.513 323.553 131.386L324.533 131.187L325.513 130.989C325.273 129.8 324.766 128.722 324.001 127.766L323.221 128.391ZM324.533 131.187L323.555 131.395C323.743 132.283 323.754 133.279 323.563 134.394L324.549 134.562L325.534 134.731C325.76 133.409 325.76 132.154 325.511 130.98L324.533 131.187ZM324.549 134.562L323.563 134.397C323.236 136.336 322.491 137.941 321.344 139.246L322.096 139.906L322.847 140.566C324.263 138.955 325.153 136.997 325.535 134.728L324.549 134.562ZM322.096 139.906L321.344 139.246C320.187 140.564 318.661 141.586 316.734 142.296L317.08 143.234L317.426 144.173C319.624 143.362 321.442 142.165 322.847 140.566L322.096 139.906ZM317.08 143.234L316.734 142.296C314.805 143.007 312.54 143.375 309.924 143.375V144.375V145.375C312.724 145.375 315.23 144.982 317.426 144.173L317.08 143.234ZM309.924 144.375V143.375C307.247 143.375 305.034 142.977 303.252 142.22L302.861 143.141L302.47 144.061C304.564 144.95 307.059 145.375 309.924 145.375V144.375ZM302.861 143.141L303.258 142.223C301.523 141.473 300.315 140.356 299.566 138.877L298.674 139.328L297.782 139.78C298.762 141.717 300.345 143.142 302.464 144.058L302.861 143.141ZM298.674 139.328L299.569 138.883C298.84 137.415 298.619 135.453 299.036 132.912L298.049 132.75L297.062 132.588C296.604 135.38 296.8 137.804 297.778 139.773L298.674 139.328ZM298.049 132.75V133.75H306.299V132.75V131.75H298.049V132.75ZM306.299 132.75L305.307 132.623C305.165 133.737 305.27 134.773 305.717 135.666L306.611 135.219L307.506 134.772C307.286 134.331 307.183 133.722 307.291 132.877L306.299 132.75ZM306.611 135.219L305.717 135.666C306.161 136.554 306.875 137.212 307.799 137.641L308.221 136.734L308.642 135.828C308.087 135.57 307.728 135.217 307.506 134.772L306.611 135.219ZM308.221 136.734L307.799 137.641C308.709 138.064 309.785 138.25 310.986 138.25V137.25V136.25C309.979 136.25 309.212 136.092 308.642 135.828L308.221 136.734ZM310.986 137.25V138.25C312 138.25 312.918 138.127 313.718 137.852L313.393 136.906L313.067 135.961C312.533 136.144 311.847 136.25 310.986 136.25V137.25ZM313.393 136.906L313.718 137.852C314.498 137.584 315.175 137.191 315.696 136.641L314.971 135.953L314.245 135.265C313.996 135.528 313.62 135.77 313.067 135.961L313.393 136.906ZM314.971 135.953L315.696 136.641C316.211 136.098 316.544 135.453 316.661 134.72L315.674 134.562L314.686 134.405C314.637 134.714 314.501 134.995 314.245 135.265L314.971 135.953ZM315.674 134.562L316.659 134.734C316.782 134.024 316.66 133.333 316.256 132.727L315.424 133.281L314.592 133.836C314.688 133.98 314.732 134.143 314.689 134.391L315.674 134.562ZM315.424 133.281L316.256 132.727C315.859 132.131 315.215 131.694 314.483 131.357L314.064 132.266L313.646 133.174C314.226 133.441 314.489 133.682 314.592 133.836L315.424 133.281ZM314.064 132.266L314.483 131.357C313.733 131.012 312.753 130.718 311.574 130.46L311.361 131.437L311.148 132.415C312.261 132.657 313.083 132.915 313.646 133.174L314.064 132.266ZM311.361 131.437L311.58 130.462L308.518 129.774L308.299 130.75L308.08 131.726L311.142 132.413L311.361 131.437ZM308.299 130.75L308.523 129.775C305.921 129.177 304.07 128.215 302.863 126.962L302.143 127.656L301.422 128.35C302.986 129.973 305.239 131.073 308.075 131.725L308.299 130.75ZM302.143 127.656L302.863 126.962C301.753 125.811 301.29 124.192 301.661 121.91L300.674 121.75L299.687 121.59C299.245 124.308 299.761 126.626 301.422 128.35L302.143 127.656ZM300.674 121.75L301.661 121.911C301.964 120.052 302.722 118.445 303.939 117.068L303.189 116.406L302.44 115.744C300.969 117.409 300.05 119.365 299.687 121.589L300.674 121.75ZM303.189 116.406L303.938 117.069C305.18 115.664 306.767 114.562 308.721 113.771L308.346 112.844L307.97 111.917C305.758 112.813 303.907 114.086 302.44 115.744L303.189 116.406ZM308.346 112.844L308.723 113.77C310.683 112.97 312.871 112.562 315.299 112.562V111.562V110.562C312.644 110.562 310.196 111.009 307.968 111.918L308.346 112.844ZM315.299 111.562V112.562C317.776 112.562 319.775 112.978 321.338 113.755L321.783 112.859L322.228 111.964C320.312 111.012 317.988 110.562 315.299 110.562V111.562ZM321.783 112.859L321.34 113.756C322.917 114.535 323.998 115.599 324.65 116.938L325.549 116.5L326.448 116.062C325.579 114.276 324.149 112.913 322.226 111.963L321.783 112.859ZM325.549 116.5L324.652 116.942C325.311 118.278 325.515 119.89 325.188 121.834L326.174 122L327.16 122.166C327.541 119.902 327.329 117.847 326.446 116.058L325.549 116.5ZM326.174 122V121H317.861V122V123H326.174V122ZM329.811 144L328.824 143.836L328.631 145H329.811V144ZM335.123 112V111H334.276L334.137 111.836L335.123 112ZM357.623 112L358.609 112.167L358.807 111H357.623V112ZM356.436 119V120H357.281L357.422 119.167L356.436 119ZM342.623 119V118H341.77L341.636 118.843L342.623 119ZM341.748 124.5L340.761 124.343L340.577 125.5H341.748V124.5ZM354.186 124.5L355.172 124.667L355.37 123.5H354.186V124.5ZM352.998 131.5V132.5H353.843L353.984 131.667L352.998 131.5ZM340.561 131.5V130.5H339.712L339.574 131.337L340.561 131.5ZM338.498 144V145H339.347L339.485 144.163L338.498 144ZM329.811 144L330.797 144.164L336.11 112.164L335.123 112L334.137 111.836L328.824 143.836L329.811 144ZM335.123 112V113H357.623V112V111H335.123V112ZM357.623 112L356.638 111.833L355.45 118.833L356.436 119L357.422 119.167L358.609 112.167L357.623 112ZM356.436 119V118H342.623V119V120H356.436V119ZM342.623 119L341.636 118.843L340.761 124.343L341.748 124.5L342.736 124.657L343.611 119.157L342.623 119ZM341.748 124.5V125.5H354.186V124.5V123.5H341.748V124.5ZM354.186 124.5L353.2 124.333L352.013 131.333L352.998 131.5L353.984 131.667L355.172 124.667L354.186 124.5ZM352.998 131.5V130.5H340.561V131.5V132.5H352.998V131.5ZM340.561 131.5L339.574 131.337L337.512 143.837L338.498 144L339.485 144.163L341.548 131.663L340.561 131.5ZM338.498 144V143H329.811V144V145H338.498V144ZM359.026 144L358.04 143.836L357.847 145H359.026V144ZM364.339 112V111H363.491L363.352 111.836L364.339 112ZM387.401 112L388.387 112.167L388.585 111H387.401V112ZM386.214 119V120H387.058L387.2 119.167L386.214 119ZM371.839 119V118H370.985L370.851 118.843L371.839 119ZM370.964 124.5L369.976 124.343L369.792 125.5H370.964V124.5ZM384.151 124.5L385.137 124.667L385.335 123.5H384.151V124.5ZM382.964 131.5V132.5H383.808L383.95 131.667L382.964 131.5ZM369.776 131.5V130.5H368.923L368.789 131.343L369.776 131.5ZM368.901 137L367.914 136.843L367.73 138H368.901V137ZM383.214 137L384.2 137.167L384.398 136H383.214V137ZM382.026 144V145H382.871L383.012 144.167L382.026 144ZM359.026 144L360.013 144.164L365.325 112.164L364.339 112L363.352 111.836L358.04 143.836L359.026 144ZM364.339 112V113H387.401V112V111H364.339V112ZM387.401 112L386.415 111.833L385.228 118.833L386.214 119L387.2 119.167L388.387 112.167L387.401 112ZM386.214 119V118H371.839V119V120H386.214V119ZM371.839 119L370.851 118.843L369.976 124.343L370.964 124.5L371.951 124.657L372.826 119.157L371.839 119ZM370.964 124.5V125.5H384.151V124.5V123.5H370.964V124.5ZM384.151 124.5L383.165 124.333L381.978 131.333L382.964 131.5L383.95 131.667L385.137 124.667L384.151 124.5ZM382.964 131.5V130.5H369.776V131.5V132.5H382.964V131.5ZM369.776 131.5L368.789 131.343L367.914 136.843L368.901 137L369.889 137.157L370.764 131.657L369.776 131.5ZM368.901 137V138H383.214V137V136H368.901V137ZM383.214 137L382.228 136.833L381.04 143.833L382.026 144L383.012 144.167L384.2 137.167L383.214 137ZM382.026 144V143H359.026V144V145H382.026V144ZM389.917 144L388.931 143.836L388.738 145H389.917V144ZM395.23 112V111H394.382L394.243 111.836L395.23 112ZM418.589 117.031L419.504 116.627L419.504 116.627L418.589 117.031ZM419.105 122.875L418.118 122.712L418.118 122.714L419.105 122.875ZM416.62 128.672L415.845 128.04L415.845 128.041L416.62 128.672ZM411.761 132.234L412.14 133.16L412.143 133.159L411.761 132.234ZM396.917 133.437L395.931 133.273L395.737 134.437H396.917V133.437ZM398.042 126.688V125.688H397.195L397.056 126.523L398.042 126.688ZM407.23 126.312L407.538 127.264L407.55 127.26L407.23 126.312ZM409.105 125.094L409.86 125.749L409.866 125.742L409.105 125.094ZM410.042 122.875L409.055 122.718L409.055 122.718L410.042 122.875ZM409.824 120.641L408.929 121.088L408.932 121.094L409.824 120.641ZM408.37 119.359L407.987 120.283L407.999 120.288L408.37 119.359ZM402.792 118.937V117.937H401.946L401.806 118.773L402.792 118.937ZM398.605 144V145H399.452L399.591 144.165L398.605 144ZM411.105 129.312L412.04 128.958L411.795 128.312H411.105V129.312ZM416.667 144V145H418.115L417.603 143.646L416.667 144ZM407.23 144L406.291 144.344L406.531 145H407.23V144ZM401.855 129.312V128.312H400.424L400.916 129.656L401.855 129.312ZM389.917 144L390.904 144.164L396.216 112.164L395.23 112L394.243 111.836L388.931 143.836L389.917 144ZM395.23 112V113H409.042V112V111H395.23V112ZM409.042 112V113C411.299 113 413.134 113.411 414.591 114.181L415.058 113.297L415.525 112.413C413.711 111.454 411.535 111 409.042 111V112ZM415.058 113.297L414.591 114.181C416.036 114.945 417.051 116.025 417.675 117.436L418.589 117.031L419.504 116.627C418.69 114.787 417.351 113.378 415.525 112.413L415.058 113.297ZM418.589 117.031L417.675 117.436C418.294 118.837 418.471 120.577 418.118 122.712L419.105 122.875L420.091 123.038C420.489 120.631 420.321 118.476 419.504 116.627L418.589 117.031ZM419.105 122.875L418.118 122.714C417.767 124.858 417.001 126.622 415.845 128.04L416.62 128.672L417.396 129.303C418.803 127.576 419.693 125.475 420.092 123.036L419.105 122.875ZM416.62 128.672L415.845 128.041C414.685 129.467 413.204 130.557 411.38 131.31L411.761 132.234L412.143 133.159C414.256 132.287 416.014 131.002 417.396 129.303L416.62 128.672ZM411.761 132.234L411.382 131.309C409.561 132.055 407.494 132.437 405.167 132.437V133.437V134.437C407.715 134.437 410.045 134.018 412.14 133.16L411.761 132.234ZM405.167 133.437V132.437H396.917V133.437V134.437H405.167V133.437ZM396.917 133.437L397.904 133.602L399.029 126.852L398.042 126.688L397.056 126.523L395.931 133.273L396.917 133.437ZM398.042 126.688V127.688H404.542V126.688V125.688H398.042V126.688ZM404.542 126.688V127.688C405.642 127.688 406.646 127.553 407.538 127.264L407.23 126.312L406.921 125.361C406.272 125.572 405.484 125.688 404.542 125.688V126.688ZM407.23 126.312L407.55 127.26C408.47 126.949 409.252 126.45 409.86 125.749L409.105 125.094L408.35 124.438C408 124.841 407.532 125.155 406.91 125.365L407.23 126.312ZM409.105 125.094L409.866 125.742C410.491 125.008 410.863 124.084 411.03 123.032L410.042 122.875L409.055 122.718C408.93 123.499 408.677 124.054 408.344 124.445L409.105 125.094ZM410.042 122.875L411.03 123.032C411.195 121.996 411.136 121.015 410.715 120.187L409.824 120.641L408.932 121.094C409.094 121.412 409.182 121.921 409.055 122.718L410.042 122.875ZM409.824 120.641L410.718 120.193C410.304 119.365 409.617 118.781 408.742 118.431L408.37 119.359L407.999 120.288C408.478 120.479 408.76 120.75 408.929 121.088L409.824 120.641ZM408.37 119.359L408.754 118.436C407.92 118.089 406.942 117.937 405.855 117.937V118.937V119.937C406.768 119.937 407.467 120.067 407.987 120.283L408.37 119.359ZM405.855 118.937V117.937H402.792V118.937V119.937H405.855V118.937ZM402.792 118.937L401.806 118.773L397.619 143.835L398.605 144L399.591 144.165L403.779 119.102L402.792 118.937ZM398.605 144V143H389.917V144V145H398.605V144ZM411.105 129.312L410.17 129.667L415.732 144.354L416.667 144L417.603 143.646L412.04 128.958L411.105 129.312ZM416.667 144V143H407.23V144V145H416.667V144ZM407.23 144L408.169 143.656L402.794 128.969L401.855 129.312L400.916 129.656L406.291 144.344L407.23 144ZM401.855 129.312V130.312H411.105V129.312V128.312H401.855V129.312ZM437.258 112L438.244 112.164L438.437 111H437.258V112ZM431.945 144V145H432.793L432.932 144.164L431.945 144ZM423.258 144L422.271 143.836L422.078 145H423.258V144ZM428.57 112V111H427.722L427.584 111.836L428.57 112ZM437.258 112L436.271 111.836L430.959 143.836L431.945 144L432.932 144.164L438.244 112.164L437.258 112ZM431.945 144V143H423.258V144V145H431.945V144ZM423.258 144L424.244 144.164L429.557 112.164L428.57 112L427.584 111.836L422.271 143.836L423.258 144ZM428.57 112V113H437.258V112V111H428.57V112ZM463.832 112V111H462.985L462.846 111.836L463.832 112ZM472.52 112L473.506 112.164L473.7 111H472.52V112ZM469.114 132.5L468.127 132.336L468.127 132.34L469.114 132.5ZM466.332 138.828L465.559 138.195L465.558 138.195L466.332 138.828ZM460.801 142.937L461.194 143.857L461.198 143.855L460.801 142.937ZM446.332 142.937L445.879 143.829L445.883 143.831L446.332 142.937ZM442.176 138.828L441.274 139.261L441.277 139.267L442.176 138.828ZM441.489 132.5L440.502 132.336L440.502 132.34L441.489 132.5ZM444.895 112V111H444.047L443.908 111.836L444.895 112ZM453.582 112L454.569 112.164L454.762 111H453.582V112ZM450.301 131.75L449.315 131.586L449.313 131.594L450.301 131.75ZM450.535 134.391L451.462 134.015L450.535 134.391ZM452.051 136.219L451.511 137.06L451.52 137.066L452.051 136.219ZM457.348 136.219L457.808 137.107L457.812 137.104L457.348 136.219ZM460.551 131.75L459.565 131.586L459.563 131.594L460.551 131.75ZM463.832 112V113H472.52V112V111H463.832V112ZM472.52 112L471.533 111.836L468.127 132.336L469.114 132.5L470.1 132.664L473.506 112.164L472.52 112ZM469.114 132.5L468.127 132.34C467.757 134.617 466.897 136.559 465.559 138.195L466.332 138.828L467.106 139.462C468.684 137.534 469.679 135.258 470.101 132.66L469.114 132.5ZM466.332 138.828L465.558 138.195C464.218 139.834 462.507 141.11 460.404 142.02L460.801 142.937L461.198 143.855C463.574 142.827 465.551 141.364 467.106 139.461L466.332 138.828ZM460.801 142.937L460.408 142.018C458.307 142.917 455.954 143.375 453.332 143.375V144.375V145.375C456.19 145.375 458.816 144.875 461.194 143.857L460.801 142.937ZM453.332 144.375V143.375C450.684 143.375 448.514 142.915 446.782 142.044L446.332 142.937L445.883 143.831C447.964 144.877 450.46 145.375 453.332 145.375V144.375ZM446.332 142.937L446.785 142.046C445.055 141.167 443.836 139.948 443.075 138.389L442.176 138.828L441.277 139.267C442.246 141.25 443.797 142.771 445.879 143.829L446.332 142.937ZM442.176 138.828L443.078 138.396C442.332 136.84 442.104 134.947 442.476 132.66L441.489 132.5L440.502 132.34C440.081 134.928 440.312 137.254 441.274 139.261L442.176 138.828ZM441.489 132.5L442.475 132.664L445.881 112.164L444.895 112L443.908 111.836L440.502 132.336L441.489 132.5ZM444.895 112V113H453.582V112V111H444.895V112ZM453.582 112L452.596 111.836L449.315 131.586L450.301 131.75L451.288 131.914L454.569 112.164L453.582 112ZM450.301 131.75L449.313 131.594C449.135 132.726 449.215 133.796 449.609 134.766L450.535 134.391L451.462 134.015C451.231 133.444 451.155 132.753 451.289 131.906L450.301 131.75ZM450.535 134.391L449.609 134.766C449.999 135.728 450.639 136.5 451.511 137.06L452.051 136.219L452.591 135.377C452.068 135.041 451.697 134.595 451.462 134.015L450.535 134.391ZM452.051 136.219L451.52 137.066C452.407 137.622 453.443 137.875 454.582 137.875V136.875V135.875C453.742 135.875 453.091 135.691 452.582 135.371L452.051 136.219ZM454.582 136.875V137.875C455.734 137.875 456.815 137.622 457.808 137.107L457.348 136.219L456.888 135.331C456.194 135.691 455.431 135.875 454.582 135.875V136.875ZM457.348 136.219L457.812 137.104C458.801 136.586 459.627 135.876 460.281 134.98L459.473 134.391L458.665 133.801C458.194 134.447 457.604 134.956 456.884 135.333L457.348 136.219ZM459.473 134.391L460.281 134.98C460.941 134.075 461.359 133.044 461.539 131.906L460.551 131.75L459.563 131.594C459.431 132.435 459.129 133.165 458.665 133.801L459.473 134.391ZM460.551 131.75L461.538 131.914L464.819 112.164L463.832 112L462.846 111.836L459.565 131.586L460.551 131.75ZM480.169 112V111H479.321L479.182 111.836L480.169 112ZM490.981 112L491.953 111.762L491.766 111H490.981V112ZM495.419 130.125L494.447 130.363L494.634 131.125H495.419V130.125ZM495.794 130.125V131.125H496.372L496.66 130.624L495.794 130.125ZM506.231 112V111H505.653L505.365 111.501L506.231 112ZM517.044 112L518.03 112.164L518.223 111H517.044V112ZM511.731 144V145H512.579L512.718 144.164L511.731 144ZM503.231 144L502.245 143.837L502.052 145H503.231V144ZM506.294 125.5L507.28 125.663L507.473 124.5H506.294V125.5ZM506.044 125.5V124.5H505.455L505.169 125.015L506.044 125.5ZM495.919 143.75V144.75H496.508L496.793 144.235L495.919 143.75ZM490.794 143.75L489.817 143.966L489.991 144.75H490.794V143.75ZM486.731 125.375L487.708 125.159L487.534 124.375H486.731V125.375ZM486.481 125.375V124.375H485.635L485.495 125.21L486.481 125.375ZM483.356 144V145H484.202L484.342 144.165L483.356 144ZM474.856 144L473.87 143.836L473.677 145H474.856V144ZM480.169 112V113H490.981V112V111H480.169V112ZM490.981 112L490.01 112.238L494.447 130.363L495.419 130.125L496.39 129.887L491.953 111.762L490.981 112ZM495.419 130.125V131.125H495.794V130.125V129.125H495.419V130.125ZM495.794 130.125L496.66 130.624L507.098 112.499L506.231 112L505.365 111.501L494.927 129.626L495.794 130.125ZM506.231 112V113H517.044V112V111H506.231V112ZM517.044 112L516.057 111.836L510.745 143.836L511.731 144L512.718 144.164L518.03 112.164L517.044 112ZM511.731 144V143H503.231V144V145H511.731V144ZM503.231 144L504.218 144.163L507.28 125.663L506.294 125.5L505.307 125.337L502.245 143.837L503.231 144ZM506.294 125.5V124.5H506.044V125.5V126.5H506.294V125.5ZM506.044 125.5L505.169 125.015L495.044 143.265L495.919 143.75L496.793 144.235L506.918 125.985L506.044 125.5ZM495.919 143.75V142.75H490.794V143.75V144.75H495.919V143.75ZM490.794 143.75L491.77 143.534L487.708 125.159L486.731 125.375L485.755 125.591L489.817 143.966L490.794 143.75ZM486.731 125.375V124.375H486.481V125.375V126.375H486.731V125.375ZM486.481 125.375L485.495 125.21L482.37 143.835L483.356 144L484.342 144.165L487.467 125.54L486.481 125.375ZM483.356 144V143H474.856V144V145H483.356V144ZM474.856 144L475.843 144.164L481.155 112.164L480.169 112L479.182 111.836L473.87 143.836L474.856 144Z" fill="black" mask="url(#path-6-outside-1_48_40)"/>
<defs>
<linearGradient id="paint0_linear_48_40" x1="-476.929" y1="-368.94" x2="-62.7073" y2="666.544" gradientUnits="userSpaceOnUse">
<stop stop-color="#3A3A3A"/>
<stop offset="0.474394" stop-color="#B1B1B1"/>
<stop offset="0.583499" stop-color="#EAEAEA"/>
<stop offset="0.8125" stop-color="#D9D9D9"/>
</linearGradient>
<linearGradient id="paint1_linear_48_40" x1="401.977" y1="255.676" x2="234.862" y2="-61" gradientUnits="userSpaceOnUse">
<stop offset="0.537104" stop-color="#FFD455"/>
<stop offset="0.760767" stop-color="#FCFBE7"/>
<stop offset="0.879342" stop-color="#FFD455"/>
</linearGradient>
<clipPath id="clip0_48_40">
<rect width="241.398" height="227.604" fill="white" transform="translate(55.1768 9.09033)"/>
</clipPath>
</defs>
</svg>
